<svg viewBox="0 0 600 600" xmlns="http://www.w3.org/2000/svg" xmlns:svg="http://www.w3.org/2000/svg">
 <g class="layer">
  <path d="m109,204l384,0l0,298.3l-384,0l0,-298.3z" fill="rgba(155,250,206,1)"/>
  <path d="m276,438c-9.37,0 -17,-7.63 -17,-17l0,-114c0,-9.37 7.63,-17 17,-17l178,0c9.37,0 17,7.63 17,17l0,114c0,9.37 -7.63,17 -17,17l-178,0z" fill="rgba(131,229,183,1)"/>
  <path d="m493,118.3l-384,0l-0.1,-21.6c0.1,-10.47 8.23,-20.4 20.9,-20.6l343.7,-0.1c15.87,0.4 19.2,12.33 19.4,23.9l0.1,18.4z" fill="rgba(155,250,206,1)"/>
  <path d="m109,204l0,298.3l32,0l0,-256.58c8.87,6.82 19.97,10.88 32,10.88s23.13,-4.06 32,-10.88c8.87,6.82 19.97,10.88 32,10.88s23.13,-4.06 32,-10.88c8.87,6.82 19.97,10.88 32,10.88c12.03,0 23.13,-4.06 32,-10.88c8.87,6.82 19.97,10.88 32,10.88s23.13,-4.06 32,-10.88c8.87,6.82 19.97,10.88 32,10.88s23.13,-4.06 32,-10.88c8.87,6.82 19.97,10.88 32,10.88l0,-52.6l-384,0z" fill="rgba(131,229,183,1)"/>
  <path d="m141,172l-64,0l32,-64l54.86,0l-22.86,64z" fill="#ff5f62"/>
  <path d="m205,172l-64,0l22.86,-64l54.85,0l-13.71,64z" fill="#eaf6ff"/>
  <path d="m269,172l-64,0l13.71,-64l54.86,0l-4.57,64z" fill="#ff5f62"/>
  <path d="m397,172l-64,0l-4.57,-64l54.86,0l13.71,64z" fill="#ff5f62"/>
  <path d="m525,172l-64,0l-22.86,-64l54.86,0l32,64z" fill="#ff5f62"/>
  <path d="m109,236c-17.67,0 -32,-14.33 -32,-32l0,-32l64,0l0,32c0,17.67 -14.33,32 -32,32z" fill="#e8585b"/>
  <path d="m173,236c-17.67,0 -32,-14.33 -32,-32l0,-32l64,0l0,32c0,17.67 -14.33,32 -32,32z" fill="#d8ecfe"/>
  <path d="m237,236c-17.67,0 -32,-14.33 -32,-32l0,-32l64,0l0,32c0,17.67 -14.33,32 -32,32z" fill="#e8585b"/>
  <path d="m301,236c-17.67,0 -32,-14.33 -32,-32l0,-32l64,0l0,32c0,17.67 -14.33,32 -32,32z" fill="#d8ecfe"/>
  <path d="m365,236c-17.67,0 -32,-14.33 -32,-32l0,-32l64,0l0,32c0,17.67 -14.33,32 -32,32z" fill="#e8585b"/>
  <path d="m429,236c-17.67,0 -32,-14.33 -32,-32l0,-32l64,0l0,32c0,17.67 -14.33,32 -32,32z" fill="#d8ecfe"/>
  <path d="m493,236c-17.67,0 -32,-14.33 -32,-32l0,-32l64,0l0,32c0,17.67 -14.33,32 -32,32z" fill="#e8585b"/>
  <path d="m205,172l-64,0l22.86,-64l54.85,0l-13.71,64z" fill="#eaf6ff"/>
  <path d="m333,172l-64,0l4.57,-64l54.86,0l4.57,64z" fill="#eaf6ff"/>
  <path d="m461,172l-64,0l-13.71,-64l54.85,0l22.86,64z" fill="#eaf6ff"/>
  <path d="m131,502l0,-195c0,-9.37 7.63,-17 17,-17l82,0c9.37,0 17,7.63 17,17l0,195l-116,0z" fill="rgba(131,229,183,1)"/>
  <path d="m237,492l-96,0l0,-185c0,-3.87 3.13,-7 7,-7l82,0c3.87,0 7,3.13 7,7l0,185z" fill="#ff5f62"/>
  <path d="m141,307l0,185l30.91,0l0,-192l-23.91,0c-3.87,0 -7,3.13 -7,7z" fill="#e8585b"/>
  <path d="m205,419.73c-4.27,0 -7.73,-3.46 -7.73,-7.73l0,-16c0,-4.27 3.46,-7.73 7.73,-7.73s7.73,3.46 7.73,7.73l0,16c0,4.27 -3.46,7.73 -7.73,7.73z" fill="#eaf6ff"/>
  <path d="m461,396l-14.25,10.3l-160.57,0l-17.18,-10.3l0,-89c0,-3.87 3.13,-7 7,-7l178,0c3.87,0 7,3.13 7,7l0,89z" fill="#eaf6ff"/>
  <path d="m269,307l0,89l15.45,10.3l15.46,0l0,-106.3l-23.91,0c-3.87,0 -7,3.13 -7,7z" fill="#d8ecfe"/>
  <path d="m461,396l-192,0l0,25c0,3.87 3.13,7 7,7l178,0c3.87,0 7,-3.13 7,-7l0,-25z" fill="#ff5f62"/>
  <path d="m269,396l0,25c0,3.87 3.13,7 7,7l23.91,0l0,-32l-30.91,0z" fill="#e8585b"/>
  <path d="m525,524l-448,0l0,-16.55c0,-8.53 6.92,-15.45 15.45,-15.45l417.1,0c8.53,0 15.45,6.92 15.45,15.45l0,16.55z" fill="#424c55"/>
  <circle cx="141.15" cy="92.2" fill="#ef5b5b" r="5.96" stroke-width="0"/>
  <circle cx="191.1" cy="92.3" fill="#3f3f3f" r="5.91"/>
  <circle cx="166.2" cy="92.4" fill="#f9902c" r="5.91"/>
 </g>
</svg>