<svg xmlns="http://www.w3.org/2000/svg" viewBox="0 0 500 500" version="1.1" id="svg_null">
  <g id="root" stroke="none" stroke-width="1" fill="none" fill-rule="evenodd">
    <rect id="background.accent" fill="#b2ebf9" x="0" y="0" width="500" height="500"></rect>
    <circle id="shape.secondary" fill="#aea1ea" cx="250" cy="250" r="175"></circle>
    <path
      d="M250 415c91.127 0 165 -73.873 165 -165c0 -91.127 -73.873 -165 -165 -165c-91.127 0 -165 73.873 -165 165c0 91.127 73.873 165 165 165zm0 10c-96.65 0 -175 -78.35 -175 -175c0 -96.65 78.35 -175 175 -175c96.65 0 175 78.35 175 175c0 96.65 -78.35 175 -175 175z"
      id="shape"
      fill="#FFF"
      fill-rule="nonzero"
    ></path>
    <g
      id="Group-2"
      transform="translate(247.157921, 218.036350) rotate(-20.000000) translate(-247.157921, -218.036350) translate(146.157921, 193.036350)"
    >
      <rect id="Rectangle-62" x="0" y="0" width="202" height="50"></rect>
      <text
        id="headerWord_1"
        font-family="Roboto"
        font-size="45"
        font-style="normal"
        font-weight="700"
        line-spacing="45"
        fill="#FFF"
        data-text-alignment="L"
      >
        <tspan x="0" y="41.5">Arab</tspan>
      </text>
    </g>
    <g
      id="Group"
      transform="translate(254.379385, 270.315960) rotate(-20.000000) translate(-254.379385, -270.315960) translate(152.879385, 245.315960)"
    >
      <rect id="Rectangle-62-Copy" x="0" y="0" width="203" height="50"></rect>
      <text
        id="headerWord_2"
        font-family="Roboto"
        font-size="45"
        font-style="normal"
        font-weight="700"
        line-spacing="45"
        fill="#FFF"
        data-text-alignment="L"
      >
        <tspan x="0" y="41.5">Local</tspan>
      </text>
    </g>
    <polygon
      id="shape"
      fill="#FFF"
      transform="translate(249.794296, 355.096874) rotate(-20.000000) translate(-249.794296, -355.096874)"
      points="99.794 335.097 399.794 335.097 99.794 375.097"
    ></polygon>
  </g>
</svg>
