<?xml version="1.0" encoding="utf-8"?>
<!-- Generator: Adobe Illustrator 27.5.0, SVG Export Plug-In . SVG Version: 6.00 Build 0)  -->
<svg version="1.1" xmlns="http://www.w3.org/2000/svg" xmlns:xlink="http://www.w3.org/1999/xlink" x="0px" y="0px"
	 viewBox="0 0 500 500" style="enable-background:new 0 0 500 500;" xml:space="preserve">
<g id="BACKGROUND">
	<linearGradient id="SVGID_1_" gradientUnits="userSpaceOnUse" x1="211.6887" y1="437.0684" x2="321.3472" y2="13.0566">
		<stop  offset="0.3075" style="stop-color:#ECFFFF"/>
		<stop  offset="1" style="stop-color:#FFFFFE"/>
	</linearGradient>

</g>
<g id="OBJECTS">
	<g>
		<g transform="matrix( 1, 0, 0, 1.643218994140625, 0,-102.2) ">
			<g>
				<g id="Layer0_0_FILL">
					
						<linearGradient id="SVGID_00000003803911478516641120000010526767314053431482_" gradientUnits="userSpaceOnUse" x1="214.6711" y1="180.2086" x2="215.8924" y2="63.5606">
						<stop  offset="0.3182" style="stop-color:#CBF5FD"/>
						<stop  offset="1" style="stop-color:#EAFBFE"/>
					</linearGradient>
					<path style="fill:url(#SVGID_00000003803911478516641120000010526767314053431482_);" d="M313.488,99.044h-35.856v33.496
						h-39.423v-11.696H205.92v-32.21h-25.108v23.698h-23.672v38.885H116.28v33.19h197.208V99.044z"/>
				</g>
			</g>
		</g>
		<g transform="matrix( 1, 0, 0, 1, 0.75,-0.1) ">
			<g>
				<g id="Layer0_1_FILL">
					
						<linearGradient id="SVGID_00000088093572468598122000000012400973870809949586_" gradientUnits="userSpaceOnUse" x1="244.9424" y1="185.4951" x2="289.3807" y2="96.6187">
						<stop  offset="0.1898" style="stop-color:#B1EDF8"/>
						<stop  offset="1" style="stop-color:#CFF3FB"/>
					</linearGradient>
					<path style="fill:url(#SVGID_00000088093572468598122000000012400973870809949586_);" d="M292.178,103.554h-23.672v51.653
						h-7.875v-32.984h-43.036v23.672h-25.109v89.64h99.693V103.554z"/>
				</g>
			</g>
		</g>
		<g>
			<g transform="matrix( 1, 0, 0, 1, 0,-0.1) ">
				<g>
					<g id="Layer0_2_FILL">
						
							<linearGradient id="SVGID_00000062164137794436007280000015595659517896909490_" gradientUnits="userSpaceOnUse" x1="335.3625" y1="230.3301" x2="379.8008" y2="141.4538">
							<stop  offset="0.1898" style="stop-color:#B1EDF8"/>
							<stop  offset="1" style="stop-color:#CFF3FB"/>
						</linearGradient>
						<path style="fill:url(#SVGID_00000062164137794436007280000015595659517896909490_);" d="M331.046,139.225v-5.327h-32.659
							V306.97h83.849V139.225H331.046z"/>
					</g>
				</g>
			</g>
			<g transform="matrix( 1, 0, 0, 1, 0,-0.1) " style="opacity:0.5;">
				<g>
					<g id="Layer0_2_MEMBER_0_FILL">
						<path style="fill:#DFF8FB;" d="M345.036,184.809v-5.467h-9.034v5.467H345.036 M367.272,195.186h-9.033v5.466h9.033V195.186
							 M336.003,200.653h9.034v-5.466h-9.034V200.653 M322.8,200.653v-5.466h-9.033v5.466H322.8 M333.918,195.186h-9.033v5.466
							h9.033V195.186 M302.648,179.343v5.467h9.033v-5.467H302.648 M358.239,179.343v5.467h9.033v-5.467H358.239 M378.39,184.809
							v-5.467h-9.033v5.467H378.39 M322.8,184.809v-5.467h-9.033v5.467H322.8 M322.8,168.966V163.5h-9.033v5.466H322.8
							 M333.918,168.966V163.5h-9.033v5.466H333.918 M358.239,163.5v5.466h9.033V163.5H358.239 M356.154,168.966V163.5h-9.033v5.466
							H356.154 M302.648,147.656v5.466h9.033v-5.466H302.648 M345.036,147.656h-9.034v5.466h9.034V147.656 M369.357,147.656v5.466
							h9.033v-5.466H369.357 M356.154,153.123v-5.466h-9.033v5.466H356.154z"/>
					</g>
				</g>
			</g>
		</g>
		<g transform="matrix( 1, 0, 0, 1, 0,-0.1) ">
			<g>
				<g id="Layer0_3_FILL">
					<path style="fill:#B1EDF8;" d="M175.994,155.81h-1.807v25.85h-22.514v-15.843h-2.826v-18.808h-1.807v18.808h-20.986v12.6h-20.8
						v3.243h-4.123v161.769h83.849V181.659h-8.987V155.81z"/>
				</g>
			</g>
		</g>
		<g>
			<g transform="matrix( 1, 0, 0, 1, -286.85,-18) ">
				<g>
					<g id="Layer0_6_FILL">
						
							<linearGradient id="SVGID_00000140717649217762778250000009644801595407841413_" gradientUnits="userSpaceOnUse" x1="396.6917" y1="205.1153" x2="416.1334" y2="163.4546">
							<stop  offset="0.3128" style="stop-color:#B9EA5E"/>
							<stop  offset="1" style="stop-color:#D0EA5E"/>
						</linearGradient>
						<path style="fill:url(#SVGID_00000140717649217762778250000009644801595407841413_);" d="M369.127,192.657
							c0,1.791,0.679,3.335,2.038,4.633c1.421,1.328,3.088,1.992,5.003,1.992h4.262v6.717l5.559-6.717h45.399
							c1.915,0,3.552-0.664,4.91-1.992c1.39-1.297,2.085-2.841,2.085-4.633v-5.281c0-1.822-0.695-3.397-2.085-4.725
							c-1.359-1.266-2.996-1.899-4.91-1.899h-55.22c-1.915,0-3.583,0.633-5.003,1.899c-1.359,1.328-2.038,2.903-2.038,4.725V192.657
							z"/>
					</g>
				</g>
			</g>
			<g transform="matrix( 1, 0, 0, 1, 0,-6.6) ">
				<g>
					<g id="Layer0_14_FILL">
						<path style="fill:#CCF18B;" d="M145.326,183.527l-0.741-3.984l3.011-2.826l-4.077-0.51l-1.714-3.706l-1.807,3.613l-4.077,0.51
							l3.011,2.779l-0.788,4.03l3.567-1.899L145.326,183.527 M126.426,179.404l-0.741,4.03l3.613-1.899l3.567,1.992l-0.788-3.984
							l3.058-2.826l-4.03-0.51l-1.76-3.706l-1.76,3.613l-4.077,0.51L126.426,179.404z"/>
						<path style="fill:#FFFFFF;" d="M107.988,183.527l-0.695-3.984l2.965-2.826l-4.03-0.51l-1.668-3.706l-1.807,3.613l-4.077,0.51
							l2.965,2.779l-0.834,4.03l3.66-1.899L107.988,183.527 M120.45,183.527l-0.741-3.984l3.011-2.826l-4.077-0.51l-1.714-3.706
							l-1.807,3.613l-3.984,0.51l2.918,2.779l-0.787,4.03l3.567-1.899L120.45,183.527 M89.18,179.404l-0.741,4.03l3.613-1.899
							l3.567,1.992l-0.788-3.984l3.058-2.826l-4.03-0.51l-1.76-3.706l-1.76,3.613l-4.077,0.51L89.18,179.404z"/>
					</g>
				</g>
			</g>
		</g>
		<g>
			<g transform="matrix( 1, 0, 0, 1, 0,-0.1) ">
				<g>
					<g id="Layer0_4_FILL">
						
							<linearGradient id="SVGID_00000065797197404467085440000016152595246115791775_" gradientUnits="userSpaceOnUse" x1="390.1934" y1="274.6064" x2="397.1369" y2="201.0056">
							<stop  offset="0.2594" style="stop-color:#F6CD78"/>
							<stop  offset="1" style="stop-color:#F9DCA1"/>
						</linearGradient>
						<path style="fill:url(#SVGID_00000065797197404467085440000016152595246115791775_);" d="M420.732,217.376h-15.704v164.641
							h25.108V217.376H420.732 M346.426,207.74v9.636h48.457v-9.636H346.426z"/>
						<path style="fill:#F3AF67;" d="M420.732,217.376v-9.636h-25.85v9.636h10.145H420.732z"/>
						
							<linearGradient id="SVGID_00000070100345865182841450000018293241990877164672_" gradientUnits="userSpaceOnUse" x1="373.4331" y1="288.3216" x2="395.1893" y2="209.1661">
							<stop  offset="0.3503" style="stop-color:#F1DEA2"/>
							<stop  offset="1" style="stop-color:#F4E6B9"/>
						</linearGradient>
						<path style="fill:url(#SVGID_00000070100345865182841450000018293241990877164672_);" d="M346.426,217.376h-10.84v164.641
							h69.442V217.376h-10.145H346.426z"/>
					</g>
				</g>
			</g>
			<g transform="matrix( 1, 0, 0, 1, 0,-0.1) ">
				<g>
					<g id="Layer0_4_MEMBER_0_FILL">
						<path style="fill:#FFBA44;" d="M344.758,331.708h-2.501v12.23h2.501V331.708 M344.758,318.181h-2.501v11.906h2.501V318.181
							 M358.656,331.708h-2.502v12.23h2.502V331.708 M358.656,318.181h-2.502v11.906h2.502V318.181 M389.74,331.708h-2.502v12.23
							h2.502V331.708 M375.842,331.708h-2.502v12.23h2.502V331.708 M375.842,318.181h-2.502v11.906h2.502V318.181 M389.74,318.181
							h-2.502v11.906h2.502V318.181 M375.842,288.486h-2.502v12.23h2.502V288.486 M358.656,288.486h-2.502v12.23h2.502V288.486
							 M358.656,274.959h-2.502v11.906h2.502V274.959 M375.842,274.959h-2.502v11.906h2.502V274.959 M344.758,288.486h-2.501v12.23
							h2.501V288.486 M344.758,274.959h-2.501v11.906h2.501V274.959 M344.758,230.486h-2.501v11.906h2.501V230.486 M375.842,244.013
							h-2.502v12.23h2.502V244.013 M344.758,244.013h-2.501v12.23h2.501V244.013 M358.656,244.013h-2.502v12.23h2.502V244.013
							 M358.656,230.486h-2.502v11.906h2.502V230.486 M375.842,230.486h-2.502v11.906h2.502V230.486 M389.74,274.959h-2.502v11.906
							h2.502V274.959 M389.74,288.486h-2.502v12.23h2.502V288.486 M389.74,230.486h-2.502v11.906h2.502V230.486 M389.74,244.013
							h-2.502v12.23h2.502V244.013z"/>
						<path style="fill:#FFD844;" d="M354.301,343.938v-12.23h-9.543v12.23H354.301 M354.301,330.086v-11.906h-9.543v11.906H354.301
							 M368.199,331.708h-9.543v12.23h9.543V331.708 M368.199,318.181h-9.543v11.906h9.543V318.181 M389.74,331.708v12.23h9.543
							v-12.23H389.74 M385.386,331.708h-9.543v12.23h9.543V331.708 M385.386,318.181h-9.543v11.906h9.543V318.181 M389.74,318.181
							v11.906h9.543v-11.906H389.74 M375.842,288.486v12.23h9.543v-12.23H375.842 M358.656,288.486v12.23h9.543v-12.23H358.656
							 M368.199,274.959h-9.543v11.906h9.543V274.959 M385.386,274.959h-9.543v11.906h9.543V274.959 M344.758,288.486v12.23h9.543
							v-12.23H344.758 M344.758,274.959v11.906h9.543v-11.906H344.758 M354.301,242.392v-11.906h-9.543v11.906H354.301
							 M375.842,244.013v12.23h9.543v-12.23H375.842 M354.301,256.243v-12.23h-9.543v12.23H354.301 M368.199,256.243v-12.23h-9.543
							v12.23H368.199 M368.199,230.486h-9.543v11.906h9.543V230.486 M385.386,230.486h-9.543v11.906h9.543V230.486 M399.283,286.865
							v-11.906h-9.543v11.906H399.283 M399.283,300.716v-12.23h-9.543v12.23H399.283 M399.283,242.392v-11.906h-9.543v11.906
							H399.283 M399.283,256.243v-12.23h-9.543v12.23H399.283z"/>
					</g>
				</g>
			</g>
		</g>
		<g>
			<g transform="matrix( 1, 0, 0, 1, 32.35,-7.15) ">
				<g>
					<g id="Layer0_5_FILL">
						
							<linearGradient id="SVGID_00000033334320461636039330000003108284450954018721_" gradientUnits="userSpaceOnUse" x1="106.4496" y1="298.0691" x2="185.1422" y2="196.2315">
							<stop  offset="0.0294" style="stop-color:#C285DE"/>
							<stop  offset="1" style="stop-color:#CC99E3"/>
						</linearGradient>
						<path style="fill:url(#SVGID_00000033334320461636039330000003108284450954018721_);" d="M135.722,201.31h-24.275v149.168
							h24.275V201.31z"/>
						
							<linearGradient id="SVGID_00000064323870680114081030000018027165619508989320_" gradientUnits="userSpaceOnUse" x1="75.4348" y1="237.9205" x2="69.4171" y2="201.3515">
							<stop  offset="0" style="stop-color:#E0B6F4"/>
							<stop  offset="1" style="stop-color:#EACCF4"/>
						</linearGradient>
						<path style="fill:url(#SVGID_00000064323870680114081030000018027165619508989320_);" d="M111.448,201.31H51.919v149.168
							h59.528V201.31z"/>
					</g>
				</g>
			</g>
			<g transform="matrix( 1, 0, 0, 1, 0,-7.6) ">
				<g>
					<g id="Layer0_11_FILL">
						<path style="fill:#CC99E3;" d="M129.159,294.642h-3.011v38.775h3.011V294.642 M110.675,294.642h-3.011v38.775h3.011V294.642
							 M89.226,333.417h3.011v-38.775h-3.011V333.417 M92.237,274.398v-38.774h-3.011v38.774H92.237 M110.675,235.624h-3.011v38.774
							h3.011V235.624 M126.148,235.624v38.774h3.011v-38.774H126.148z"/>
						<path style="fill:#FFDE77;" d="M138.934,294.642h-9.775v38.775h9.775V294.642 M120.45,294.642h-9.775v38.775h9.775V294.642
							 M102.012,294.642h-9.775v38.775h9.775V294.642 M102.012,235.624h-9.775v38.774h9.775V235.624 M120.45,235.624h-9.775v38.774
							h9.775V235.624 M138.934,235.624h-9.775v38.774h9.775V235.624z"/>
					</g>
				</g>
			</g>
			<g transform="matrix( 1, 0, 0, 1, 0,-7.6) ">
				<g>
					<g id="Layer0_13_FILL">
						<path style="fill:#EACDF8;" d="M127.815,286.906v-5.049H79.961v5.049H127.815 M127.815,229.277v-5.049H79.961v5.049H127.815z"
							/>
						
							<linearGradient id="SVGID_00000052103718551077777300000011168000752834127020_" gradientUnits="userSpaceOnUse" x1="116.2601" y1="281.1022" x2="194.9527" y2="179.2645">
							<stop  offset="0.0294" style="stop-color:#C285DE"/>
							<stop  offset="1" style="stop-color:#CC99E3"/>
						</linearGradient>
						<path style="fill:url(#SVGID_00000052103718551077777300000011168000752834127020_);" d="M127.815,281.857v5.049h16.353
							v-5.049H127.815 M144.168,229.277v-5.049h-16.353v5.049H144.168z"/>
					</g>
				</g>
			</g>
		</g>
		<g>
			<g transform="matrix( 0.9966583251953125, -0.0816802978515625, 0.0816802978515625, 0.9966583251953125, -20.5,13.8) ">
				<g>
					<g id="Layer0_7_MEMBER_0_FILL">
						
							<linearGradient id="SVGID_00000028284357883393269350000007280874616688398742_" gradientUnits="userSpaceOnUse" x1="238.0923" y1="201.5362" x2="277.3013" y2="427.3032">
							<stop  offset="0" style="stop-color:#C2EFEF"/>
							<stop  offset="1" style="stop-color:#AFEAEA"/>
						</linearGradient>
						<path style="fill:url(#SVGID_00000028284357883393269350000007280874616688398742_);" d="M157.271,410.198l177.751,0
							l0-239.179l-177.751,0L157.271,410.198z"/>
					</g>
				</g>
			</g>
			<g transform="matrix( 0.9966583251953125, -0.0816802978515625, 0.0816802978515625, 0.9966583251953125, -36.3,7.3) ">
				<g>
					<g id="Layer0_7_MEMBER_1_FILL">
						<path style="fill:#FFFFFF;" d="M349.761,215.831v-12.925l-38.45,14.963l-4.169-11.489c-0.015-0.054-0.031-0.116-0.046-0.185
							c-0.025-0.087-0.056-0.18-0.093-0.278c-0.029-0.077-0.06-0.154-0.093-0.232l0-0.046l-9.867-26.869l-12.786,0l9.358,25.664
							l-60.594,22.329l-19.549-47.993l-12.971,0l23.487,57.768c0.023,0.063,0.039,0.124,0.046,0.185
							c0.074,0.143,0.136,0.282,0.185,0.417l7.458,19.086l-46.094,19.179l-0.278,0.139l-12.786,5.327l0,13.064l11.859-4.957
							l25.386,65.087c0.049,0.12,0.095,0.228,0.139,0.324l10.099,25.85l-47.484,19.318l0,12.971l51.885-21.078l10.331,26.498h12.925
							l-14.176-36.273c-0.019-0.091-0.05-0.199-0.093-0.324l-10.192-25.989l40.164-17.882l31.455,80.467h12.925l-33.308-85.285
							l37.941-16.307l37.385,84.359l0-29.695l-16.075-36.273l16.075-6.578l0-13.018l-20.939,8.617l-7.829-17.743
							c-0.671-1.491-1.783-2.541-3.335-3.15c-1.517-0.609-3.046-0.593-4.586,0.046l-43.036,18.484l-13.064-33.447l46.511-18.53
							c0.1-0.029,0.208-0.075,0.324-0.139c15.541-6.792,19.432-20.134,11.674-40.025l0.046,0.093l-0.093-0.185L349.761,215.831
							 M304.269,233.62c4.711,12.084,2.874,20.33-5.513,24.738l-46.14,18.438l-7.597-19.503c-0.015-0.023-0.03-0.054-0.046-0.093
							c-0.024-0.057-0.055-0.118-0.093-0.185l-7.412-19.04l60.27-22.236l4.216,11.535c0.042,0.102,0.073,0.194,0.093,0.278
							c0.031,0.07,0.046,0.131,0.046,0.185c0.025,0.015,0.041,0.031,0.046,0.046l2.085,5.744L304.269,233.62 M243.629,286.802
							c0.009,0.03,0.009,0.046,0,0.046l15.38,39.423l-40.211,17.882l-23.302-59.806l40.535-16.909L243.629,286.802"/>
					</g>
				</g>
			</g>
			<g transform="matrix( 0.9966583251953125, -0.0816802978515625, 0.0816802978515625, 0.9966583251953125, -20.5,13.8) ">
				<g>
					<g id="Layer0_7_MEMBER_2_FILL">
						
							<linearGradient id="SVGID_00000126283454059712520230000002699721614217552819_" gradientUnits="userSpaceOnUse" x1="249.174" y1="282.59" x2="281.4509" y2="171.3654">
							<stop  offset="0.2861" style="stop-color:#CFBABA"/>
							<stop  offset="1" style="stop-color:#C7DED6"/>
						</linearGradient>
						<path style="fill:url(#SVGID_00000126283454059712520230000002699721614217552819_);" d="M336.968,173.289
							c0-3.088-1.544-4.633-4.633-4.633l-172.331,0c-3.088,0-4.633,1.544-4.633,4.633l0,234.361c0,3.088,1.544,4.633,4.633,4.633
							l172.331,0c3.088,0,4.633-1.544,4.633-4.633L336.968,173.289 M332.336,173.289l0,234.361l-172.331,0l0-234.361H332.336z"/>
					</g>
				</g>
			</g>
			<g>
				<g transform="matrix( 0.791961669921875, -0.0648956298828125, 0.0648956298828125, 0.791961669921875, 78.25,57.15) ">
					<g>
						<g id="Layer0_7_MEMBER_3_MEMBER_0_FILL">
							<path style="fill:#FF6969;" d="M277.95,232.641c0.031-0.34,0.046-0.679,0.046-1.019c0-2.749-0.988-5.111-2.965-7.088
								c-1.946-1.946-4.293-2.918-7.041-2.919c-2.749,0-5.111,0.973-7.088,2.918c-1.946,1.977-2.919,4.339-2.919,7.088
								c0,0.34,0.015,0.679,0.046,1.019c0.124,1.235,0.525,2.563,1.205,3.984c0.093,0.185,0.201,0.386,0.324,0.602
								c1.915,4.262,4.324,8.292,7.227,12.091c1.174,1.39,2.177,1.39,3.011,0c2.502-4.107,4.849-8.323,7.041-12.647
								C277.456,235.467,277.827,234.124,277.95,232.641 M264.145,230.371c0-1.05,0.371-1.961,1.112-2.733
								c0.772-0.741,1.683-1.112,2.733-1.112c1.05,0,1.946,0.371,2.687,1.112c0.772,0.772,1.158,1.683,1.158,2.733
								c0,1.05-0.386,1.946-1.158,2.687c-0.741,0.772-1.637,1.158-2.687,1.158c-1.05,0-1.961-0.386-2.733-1.158
								C264.516,232.317,264.145,231.421,264.145,230.371z"/>
						</g>
					</g>
				</g>
				<g transform="matrix( 0.791961669921875, -0.0648956298828125, 0.0648956298828125, 0.791961669921875, 99.55,83) ">
					<g>
						<g id="Layer0_7_MEMBER_3_MEMBER_1_FILL">
							<path style="fill:#FF6969;" d="M239.956,248.72l0-10.192l7.736,0l0,10.192l8.987,0l0-19.132l5.42,0l-5.42-10.979l-25.34,0
								l-5.42,10.979l5.003,0l0,19.132L239.956,248.72z"/>
						</g>
					</g>
				</g>
				<g transform="matrix( 0.83355712890625, -0.0683135986328125, 0.0648956298828125, 0.791961669921875, 86.8,76.7) ">
					<g>
						<g id="Layer0_7_MEMBER_3_MEMBER_2_FILL">
							<path style="fill:#FFC95D;" d="M267.633,261.025c-0.896-0.896-1.977-1.343-3.243-1.343l-36.551,0
								c-1.266,0-2.363,0.448-3.289,1.344c-0.896,0.926-1.343,2.023-1.343,3.289l0,3.66c0,1.266,0.448,2.347,1.343,3.243
								c0.927,0.927,2.023,1.39,3.289,1.39l36.551,0c1.266,0,2.347-0.463,3.243-1.39c0.927-0.896,1.39-1.977,1.39-3.243l0-3.66
								C269.023,263.048,268.56,261.952,267.633,261.025z"/>
						</g>
					</g>
				</g>
				<g transform="matrix( 0.9966583251953125, -0.0816802978515625, 0.0816802978515625, 0.9966583251953125, -17.4,17.05) ">
					<g>
						<g id="Layer0_7_MEMBER_3_MEMBER_3_FILL">
							<path style="fill:#FFFFFF;" d="M291.176,276.107l-1.019,1.992l-2.224,0.278l1.621,1.529l-0.417,2.27l1.992-1.065l1.992,1.112
								l-0.463-2.224l1.714-1.529l-2.27-0.324L291.176,276.107 M298.033,276.107l-0.973,1.992l-2.27,0.278l1.621,1.529l-0.417,2.27
								l1.992-1.066l1.992,1.112l-0.417-2.224l1.668-1.529l-2.27-0.324L298.033,276.107 M303.916,278.099l-2.224,0.278l1.621,1.529
								l-0.463,2.27l1.992-1.066l1.992,1.112l-0.417-2.224l1.668-1.529l-2.224-0.324l-0.973-2.038L303.916,278.099z"/>
							<path style="fill:#FFD88D;" d="M312.718,278.145l-0.927-2.038l-1.019,1.992l-2.224,0.278l1.621,1.529l-0.417,2.27
								l1.992-1.066l1.992,1.112l-0.463-2.224l1.714-1.529L312.718,278.145 M317.675,278.099l-2.27,0.278l1.668,1.529l-0.417,2.27
								l1.946-1.066l1.992,1.112l-0.371-2.224l1.621-1.529l-2.224-0.324l-0.973-2.038L317.675,278.099z"/>
						</g>
					</g>
				</g>
			</g>
			<g>
				<g transform="matrix( 0.791961669921875, -0.0648956298828125, 0.0648956298828125, 0.791961669921875, 15.25,10.2) ">
					<g>
						<g id="Layer0_7_MEMBER_4_MEMBER_0_FILL">
							<path style="fill:#FF6969;" d="M283.449,236.425c0-2.749-0.988-5.111-2.965-7.088c-1.946-1.946-4.293-2.918-7.042-2.919
								c-2.749,0-5.111,0.973-7.088,2.918c-1.946,1.977-2.919,4.339-2.919,7.088c0,0.346,0.015,0.686,0.046,1.019
								c0.114,1.236,0.516,2.548,1.205,3.938c0.102,0.222,0.21,0.438,0.324,0.649c1.903,4.25,4.312,8.28,7.227,12.091
								c1.185,1.388,2.189,1.388,3.011,0c2.487-4.098,4.834-8.314,7.041-12.647c0.603-1.22,0.974-2.563,1.112-4.03
								C283.433,237.111,283.449,236.771,283.449,236.425 M270.709,232.441c0.772-0.741,1.683-1.112,2.733-1.112
								c1.05,0,1.946,0.371,2.687,1.112c0.772,0.772,1.158,1.683,1.158,2.733c0,1.05-0.386,1.946-1.158,2.687
								c-0.741,0.772-1.637,1.158-2.687,1.158c-1.05,0-1.961-0.386-2.733-1.158c-0.741-0.741-1.112-1.637-1.112-2.687
								C269.598,234.125,269.968,233.213,270.709,232.441z"/>
						</g>
					</g>
				</g>
				<g transform="matrix( 0.9966583251953125, -0.0816802978515625, 0.0816802978515625, 0.9966583251953125, -17.9,11.05) ">
					<g>
						<g id="Layer0_7_MEMBER_4_MEMBER_1_FILL">
							<path style="fill:#FF6969;" d="M260.556,207.015l-20.476,0l0,33.54h7.18l0-8.107l6.161,0l0,8.107l7.134,0L260.556,207.015
								 M242.581,211.045l3.66,0l0,3.66l-3.66,0L242.581,211.045 M248.65,214.705l0-3.66l3.66,0l0,3.66L248.65,214.705
								 M258.378,211.045l0,3.66l-3.66,0l0-3.66L258.378,211.045 M254.719,224.526l3.66,0l0,3.66l-3.66,0L254.719,224.526
								 M254.719,221.561l0-3.66l3.66,0l0,3.66L254.719,221.561 M252.31,217.901l0,3.66l-3.66,0l0-3.66L252.31,217.901
								 M242.581,217.901l3.66,0l0,3.66l-3.66,0L242.581,217.901 M242.581,224.526l3.66,0l0,3.66l-3.66,0L242.581,224.526
								 M248.65,224.526l3.66,0l0,3.66l-3.66,0L248.65,224.526z"/>
						</g>
					</g>
				</g>
				<g transform="matrix( 0.83355712890625, -0.0683135986328125, 0.0648956298828125, 0.791961669921875, 24.7,40.2) ">
					<g>
						<g id="Layer0_7_MEMBER_4_MEMBER_2_FILL">
							<path style="fill:#FFC95D;" d="M272.81,264.859c-0.896-0.896-1.977-1.344-3.243-1.344l-36.551,0
								c-1.266,0-2.363,0.448-3.289,1.343c-0.896,0.926-1.343,2.023-1.343,3.289v3.66c0,1.266,0.448,2.347,1.343,3.243
								c0.926,0.926,2.023,1.39,3.289,1.39l36.551,0c1.266,0,2.347-0.463,3.243-1.39c0.926-0.896,1.39-1.977,1.39-3.243v-3.66
								C274.199,266.882,273.736,265.785,272.81,264.859z"/>
						</g>
					</g>
				</g>
				<g transform="matrix( 0.791961669921875, -0.0648956298828125, 0.0648956298828125, 0.791961669921875, 37.45,47.2) ">
					<g>
						<g id="Layer0_7_MEMBER_4_MEMBER_3_FILL">
							<path style="fill:#FFD88D;" d="M262.457,258.512l2.085,1.946l-0.556,2.826l2.502-1.343l2.502,1.39l-0.51-2.78l2.085-1.946
								l-2.826-0.371l-1.204-2.594l-1.251,2.548L262.457,258.512z"/>
							<path style="fill:#FFFFFF;" d="M231.928,255.639l-1.251,2.548l-2.826,0.324l2.038,1.946l-0.51,2.826l2.502-1.343l2.502,1.39
								l-0.556-2.78l2.131-1.946l-2.826-0.371L231.928,255.639 M256.62,258.187l-2.826,0.324l2.038,1.946l-0.51,2.826l2.502-1.343
								l2.502,1.39l-0.556-2.78l2.131-1.946l-2.826-0.371l-1.205-2.594L256.62,258.187 M241.749,258.234l-1.158-2.594l-1.251,2.548
								l-2.826,0.324l2.038,1.946l-0.556,2.826l2.548-1.343l2.455,1.39l-0.51-2.78l2.085-1.946L241.749,258.234 M245.178,258.512
								l2.038,1.946l-0.556,2.826l2.501-1.343l2.502,1.39l-0.51-2.78l2.085-1.946l-2.826-0.371l-1.204-2.594l-1.251,2.548
								L245.178,258.512z"/>
						</g>
					</g>
				</g>
			</g>
			<g>
				<g transform="matrix( 0.791961669921875, -0.0648956298828125, 0.0648956298828125, 0.791961669921875, -43.2,162.45) ">
					<g>
						<g id="Layer0_7_MEMBER_5_MEMBER_0_FILL">
							<path style="fill:#FF6969;" d="M289.94,223.852c0.031-0.34,0.046-0.679,0.046-1.019c0-2.749-0.988-5.111-2.965-7.088
								c-1.946-1.946-4.293-2.918-7.041-2.918c-2.749,0-5.111,0.973-7.088,2.918c-1.946,1.977-2.919,4.339-2.919,7.088
								c0,0.34,0.015,0.679,0.046,1.019c0.124,1.235,0.525,2.563,1.205,3.984c0.093,0.185,0.201,0.386,0.324,0.602
								c1.915,4.262,4.324,8.292,7.227,12.091c1.174,1.39,2.177,1.39,3.011,0c2.502-4.108,4.849-8.323,7.041-12.647
								C289.446,226.678,289.817,225.335,289.94,223.852 M276.135,221.582c0-1.05,0.371-1.961,1.112-2.733
								c0.772-0.741,1.683-1.112,2.733-1.112c1.05,0,1.946,0.371,2.687,1.112c0.772,0.772,1.158,1.683,1.158,2.733
								c0,1.05-0.386,1.946-1.158,2.687c-0.741,0.772-1.637,1.158-2.687,1.158c-1.05,0-1.961-0.386-2.733-1.158
								C276.506,223.528,276.135,222.632,276.135,221.582z"/>
						</g>
					</g>
				</g>
				<g transform="matrix( 0.791961669921875, -0.0648956298828125, 0.0648956298828125, 0.791961669921875, -21.95,188.3) ">
					<g>
						<g id="Layer0_7_MEMBER_5_MEMBER_1_FILL">
							<path style="fill:#FF6969;" d="M251.95,239.932l0-10.192l7.736,0l0,10.192l8.987,0V220.8l5.42,0l-5.42-10.979l-25.34,0
								l-5.42,10.979l5.003,0l0,19.132L251.95,239.932z"/>
						</g>
					</g>
				</g>
				<g transform="matrix( 0.83355712890625, -0.0683135986328125, 0.0648956298828125, 0.791961669921875, -34.65,182) ">
					<g>
						<g id="Layer0_7_MEMBER_5_MEMBER_2_FILL">
							<path style="fill:#FFC95D;" d="M279.025,252.237c-0.896-0.896-1.976-1.344-3.243-1.344l-36.551,0
								c-1.266,0-2.363,0.448-3.289,1.343c-0.896,0.926-1.343,2.023-1.343,3.289v3.66c0,1.266,0.448,2.347,1.343,3.243
								c0.927,0.926,2.023,1.39,3.289,1.39l36.551,0c1.266,0,2.347-0.463,3.243-1.39c0.927-0.896,1.39-1.977,1.39-3.243v-3.66
								C280.414,254.26,279.951,253.163,279.025,252.237z"/>
						</g>
					</g>
				</g>
				<g transform="matrix( 0.9966583251953125, -0.0816802978515625, 0.0816802978515625, 0.9966583251953125, -19.5,20.8) ">
					<g>
						<g id="Layer0_7_MEMBER_5_MEMBER_3_FILL">
							<path style="fill:#FFFFFF;" d="M194.023,360.528l-1.019,1.992l-2.224,0.278l1.621,1.529l-0.417,2.27l1.992-1.065h0.046
								L194.023,360.528 M176.604,362.891l-2.27-0.324l-0.926-2.038l-1.019,1.992l-2.224,0.278l1.621,1.529l-0.417,2.27l1.992-1.065
								l1.992,1.112l-0.463-2.224L176.604,362.891 M180.264,360.528l-0.973,1.992l-2.27,0.278l1.621,1.529l-0.417,2.27l1.992-1.065
								l1.992,1.112l-0.417-2.224l1.668-1.529l-2.27-0.324L180.264,360.528 M186.147,362.52l-2.224,0.278l1.621,1.529l-0.463,2.27
								l1.992-1.065l1.992,1.112l-0.417-2.224l1.668-1.529l-2.224-0.324l-0.973-2.038L186.147,362.52z"/>
							<path style="fill:#FFD88D;" d="M197.219,362.891l-2.27-0.324l-0.926-2.038l0,5.003l1.946,1.112l-0.463-2.224L197.219,362.891
								 M199.906,362.52l-2.27,0.278l1.668,1.529l-0.417,2.27l1.946-1.065l1.992,1.112l-0.371-2.224l1.621-1.529l-2.224-0.324
								l-0.973-2.038L199.906,362.52z"/>
						</g>
					</g>
				</g>
			</g>
		</g>
		<g>
			
				<g transform="matrix( 0.7798919677734375, -0.4502410888671875, 0.4502410888671875, 0.7798919677734375, -129.45,192.45) " style="opacity:0.7;">
				<g>
					<g id="Layer0_8_MEMBER_2_FILL">
						<path style="fill:#FFFFFF;" d="M366.624,365.619c-11.272-11.273-24.877-16.909-40.813-16.909
							c-15.936,0-29.556,5.636-40.859,16.909c-11.242,11.273-16.863,24.877-16.862,40.813c0,15.936,5.621,29.54,16.862,40.813
							c11.272,11.273,24.892,16.909,40.859,16.909c15.905,0,29.494-5.636,40.766-16.909l0.046-0.046
							c11.273-11.273,16.909-24.861,16.909-40.766C383.533,390.465,377.897,376.86,366.624,365.619z"/>
					</g>
				</g>
			</g>
			<g>
				
					<rect x="301.429" y="308.625" transform="matrix(0.8695 0.4939 -0.4939 0.8695 219.3237 -103.8283)" style="opacity:0.8;fill:#FFFFFF;" width="9.479" height="109.11"/>
				
					<rect x="327.051" y="329.449" transform="matrix(0.8695 0.4939 -0.4939 0.8695 229.6077 -114.6484)" style="opacity:0.8;fill:#FFFFFF;" width="9.479" height="95.578"/>
				<polygon style="opacity:0.8;fill:#FFFFFF;" points="270.545,405.688 259.426,394.843 309.222,306.87 324.434,310.814 				"/>
				<polygon style="opacity:0.8;fill:#FFFFFF;" points="288.273,415.887 286.192,413.95 340.081,319.077 342.162,321.014 				"/>
			</g>
			<g transform="matrix( 1, 0, 0, 1, 1.25,-0.1) ">
				<g>
					<g id="Layer0_8_MEMBER_0_FILL">
						
							<linearGradient id="SVGID_00000139277501788552911140000000510539237678589362_" gradientUnits="userSpaceOnUse" x1="320.4587" y1="413.6591" x2="358.8421" y2="448.9893">
							<stop  offset="0.2487" style="stop-color:#ECE4E4"/>
							<stop  offset="1" style="stop-color:#F5F1F1"/>
						</linearGradient>
						<path style="fill:url(#SVGID_00000139277501788552911140000000510539237678589362_);" d="M344.388,413.38l-13.295,7.644
							l31.965,53.969c0.896,1.143,1.791,1.868,2.687,2.177c0.896,0.309,1.915,0.216,3.057-0.278c2.44-1.143,4.586-2.486,6.439-4.03
							c1.76-1.39,2.038-3.397,0.834-6.022L344.388,413.38z"/>
					</g>
				</g>
			</g>
			<g transform="matrix( 0.9361724853515625, 0, 0, 0.9361724853515625, 23.1,26.15) ">
				<g>
					<g id="Layer0_8_MEMBER_1_FILL">
						<path style="fill:#E2D4D4;" d="M330.081,424.94l16.909-9.775c-0.679-3.336-2.301-6.146-4.864-8.431l-16.909,9.775
							C325.835,419.906,327.456,422.716,330.081,424.94z"/>
					</g>
				</g>
			</g>
			<g transform="matrix( 0.7580108642578125, -0.4376220703125, 0.4376220703125, 0.7580108642578125, -96.6,205.75) ">
				<g>
					<g id="Layer0_8_MEMBER_3_FILL">
						
							<linearGradient id="SVGID_00000106830759263371352760000016567179824771753624_" gradientUnits="userSpaceOnUse" x1="295.5235" y1="404.1962" x2="310.3533" y2="317.8336">
							<stop  offset="0.2487" style="stop-color:#ECE4E4"/>
							<stop  offset="1" style="stop-color:#F5F1F1"/>
						</linearGradient>
						<path style="fill:url(#SVGID_00000106830759263371352760000016567179824771753624_);" d="M377.93,386.832
							c0-18.746-6.64-34.76-19.92-48.04c-13.249-13.249-29.262-19.874-48.04-19.874c-18.746,0-34.76,6.625-48.04,19.874
							c-13.249,13.28-19.874,29.293-19.874,48.04c0,18.746,6.625,34.744,19.874,47.993c13.28,13.28,29.293,19.92,48.04,19.92
							c18.777,0,34.79-6.64,48.04-19.92C371.29,421.576,377.93,405.578,377.93,386.832 M351.941,344.815
							c11.581,11.581,17.372,25.572,17.372,41.971c0,16.368-5.791,30.343-17.372,41.925l-0.046,0.046
							c-11.581,11.581-25.556,17.372-41.925,17.372c-16.399,0-30.39-5.791-41.971-17.372
							c-11.581-11.581-17.372-25.572-17.372-41.971c0-16.368,5.791-30.359,17.372-41.971c11.612-11.581,25.603-17.372,41.971-17.372
							C326.37,327.443,340.36,333.234,351.941,344.815z"/>
						<path style="fill:#E2D4D4;" d="M369.314,386.786c0-16.399-5.791-30.39-17.372-41.971
							c-11.581-11.581-25.572-17.372-41.971-17.372c-16.368,0-30.359,5.791-41.971,17.372
							c-11.581,11.612-17.372,25.603-17.372,41.971c0,16.399,5.791,30.39,17.372,41.971c11.581,11.581,25.572,17.372,41.971,17.372
							c16.368,0,30.343-5.791,41.925-17.372l0.046-0.046C363.523,417.129,369.314,403.154,369.314,386.786 M350.83,346.019
							c11.273,11.242,16.909,24.846,16.909,40.813c0,15.905-5.636,29.494-16.909,40.766l-0.046,0.046
							c-11.273,11.273-24.861,16.909-40.767,16.909c-15.967,0-29.587-5.636-40.859-16.909
							c-11.242-11.273-16.862-24.877-16.862-40.813c0-15.936,5.621-29.54,16.862-40.813c11.303-11.273,24.923-16.909,40.859-16.909
							C325.953,329.111,339.557,334.747,350.83,346.019z"/>
					</g>
				</g>
			</g>
		</g>
		<g>
			<g transform="matrix( 1, 0, 0, 1, 0,-1.1) ">
				<g>
					<g id="Layer0_9_FILL">
						
							<linearGradient id="SVGID_00000020382574417191250170000009021459903528020889_" gradientUnits="userSpaceOnUse" x1="377.7878" y1="203.5773" x2="391.2118" y2="162.8423">
							<stop  offset="0.3128" style="stop-color:#B9EA5E"/>
							<stop  offset="1" style="stop-color:#D0EA5E"/>
						</linearGradient>
						<path style="fill:url(#SVGID_00000020382574417191250170000009021459903528020889_);" d="M348.047,191.415
							c0,1.791,0.679,3.335,2.038,4.633c1.421,1.328,3.088,1.992,5.003,1.992h4.262v6.717l5.559-6.717h45.399
							c1.915,0,3.552-0.664,4.91-1.992c1.39-1.297,2.085-2.841,2.085-4.633v-5.281c0-1.822-0.695-3.397-2.085-4.725
							c-1.359-1.266-2.996-1.899-4.91-1.899h-55.22c-1.915,0-3.582,0.633-5.003,1.899c-1.359,1.328-2.038,2.903-2.038,4.725V191.415
							z"/>
					</g>
				</g>
			</g>
			<g transform="matrix( 1, 0, 0, 1, 0,-0.1) ">
				<g>
					<g id="Layer0_10_FILL">
						<path style="fill:#FFFFFF;" d="M392.195,188.562l-0.741,4.03l3.613-1.899l3.567,1.992l-0.788-3.984l3.058-2.826l-4.03-0.51
							l-1.76-3.706l-1.76,3.613l-4.077,0.51L392.195,188.562 M354.208,192.592l3.613-1.899l3.567,1.992l-0.788-3.984l3.058-2.826
							l-4.03-0.51l-1.76-3.706l-1.76,3.613l-4.077,0.51l2.918,2.78L354.208,192.592 M373.758,192.685l-0.695-3.984l2.965-2.826
							l-4.03-0.51l-1.668-3.706l-1.807,3.613l-4.077,0.51l2.965,2.78l-0.834,4.03l3.66-1.899L373.758,192.685 M376.908,185.782
							l2.918,2.78l-0.787,4.03l3.567-1.899l3.613,1.992l-0.741-3.984l3.011-2.826l-4.077-0.51l-1.714-3.706l-1.807,3.613
							L376.908,185.782z"/>
						<path style="fill:#CCF18B;" d="M411.096,192.685l-0.741-3.984l3.011-2.826l-4.077-0.51l-1.714-3.706l-1.807,3.613l-4.077,0.51
							l3.011,2.78l-0.787,4.03l3.567-1.899L411.096,192.685z"/>
					</g>
				</g>
			</g>
		</g>
		<g>
			<g transform="matrix( 1, 0, 0, 1, -7.65,0.9) ">
				<g>
					<g id="Layer0_12_MEMBER_0_FILL">
						<path style="fill:#FF7373;" d="M71.304,316.254l-1.899-6.486l-2.548,4.123v2.362H71.304z"/>
					</g>
				</g>
			</g>
			<g transform="matrix( 1, 0, 0, 1, -7.65,0.9) ">
				<g>
					<g id="Layer0_12_MEMBER_1_FILL">
						
							<linearGradient id="SVGID_00000119111957256885685500000000227217909890302901_" gradientUnits="userSpaceOnUse" x1="81.3136" y1="285.8348" x2="82.7023" y2="352.4922">
							<stop  offset="0.2406" style="stop-color:#F1D8D8"/>
							<stop  offset="1" style="stop-color:#E8BFBF"/>
						</linearGradient>
						<path style="fill:url(#SVGID_00000119111957256885685500000000227217909890302901_);" d="M68.988,309.907v39.331h26.313
							v-47.021l-12.601-16.909L68.988,309.907z"/>
						<path style="fill:#E2B3C2;" d="M142.739,309.166l-47.437-6.949v47.021h47.437V309.166z"/>
					</g>
				</g>
			</g>
			<g transform="matrix( 1, 0, 0, 1, -7.65,0.9) ">
				<g>
					<g id="Layer0_12_MEMBER_1_MEMBER_0_FILL">
						<path style="fill:#FFDE90;" d="M118.603,321.767h-7.968v11.35h7.968V321.767 M127.451,321.767h-8.014v11.35h8.014V321.767z"/>
					</g>
				</g>
			</g>
			<g transform="matrix( 0.9365386962890625, 0, 0, 1, -6.7,0.9) ">
				<g>
					<g id="Layer0_12_MEMBER_2_FILL">
						
							<linearGradient id="SVGID_00000127023246307329448660000014542726339454135712_" gradientUnits="userSpaceOnUse" x1="115.6501" y1="310.3656" x2="136.9435" y2="269.1676">
							<stop  offset="0" style="stop-color:#FF6C6C"/>
							<stop  offset="1" style="stop-color:#FF7395"/>
						</linearGradient>
						<path style="fill:url(#SVGID_00000127023246307329448660000014542726339454135712_);" d="M106.299,316.254h51.143
							l-19.688-34.883H86.61L106.299,316.254z"/>
						<path style="fill:#FF9595;" d="M66.922,316.254h3.428l16.121-28.629l16.168,28.629h3.66L86.61,281.371L66.922,316.254z"/>
					</g>
				</g>
			</g>
		</g>
		<g>
			<g transform="matrix( 1, 0, 0, 1, -307,80.3) ">
				<g>
					<g id="Layer0_12_MEMBER_4_MEMBER_0_FILL">
						
							<linearGradient id="SVGID_00000093864934996391869950000014409423958399113378_" gradientUnits="userSpaceOnUse" x1="402.4164" y1="198.1296" x2="410.7485" y2="152.7657">
							<stop  offset="0.3128" style="stop-color:#B9EA5E"/>
							<stop  offset="1" style="stop-color:#D0EA5E"/>
						</linearGradient>
						<path style="fill:url(#SVGID_00000093864934996391869950000014409423958399113378_);" d="M370.608,185.433
							c0,1.791,0.679,3.335,2.038,4.632c1.421,1.328,3.088,1.992,5.003,1.992h4.262v6.717l5.559-6.717h45.399
							c1.915,0,3.552-0.664,4.91-1.992c1.39-1.297,2.085-2.841,2.085-4.632v-5.281c0-1.822-0.695-3.397-2.085-4.725
							c-1.359-1.266-2.996-1.899-4.91-1.899h-55.22c-1.915,0-3.582,0.633-5.003,1.899c-1.359,1.328-2.038,2.903-2.038,4.725V185.433
							z"/>
					</g>
				</g>
			</g>
			<g transform="matrix( 1, 0, 0, 1, -307,80.3) ">
				<g>
					<g id="Layer0_12_MEMBER_4_MEMBER_1_FILL">
						<path style="fill:#FFFFFF;" d="M414.757,183.58l-0.741,4.03l3.613-1.899l3.567,1.992l-0.788-3.984l3.057-2.826l-4.03-0.51
							l-1.76-3.706l-1.76,3.613l-4.077,0.51L414.757,183.58 M383.95,187.703l-0.788-3.984l3.057-2.826l-4.03-0.51l-1.76-3.706
							l-1.76,3.613l-4.077,0.51l2.919,2.78l-0.741,4.03l3.613-1.899L383.95,187.703 M395.624,183.719l2.965-2.826l-4.03-0.51
							l-1.668-3.706l-1.807,3.613l-4.077,0.51l2.965,2.78l-0.834,4.03l3.66-1.899l3.521,1.992L395.624,183.719 M402.388,183.58
							l-0.788,4.03l3.567-1.899l3.613,1.992l-0.741-3.984l3.011-2.826l-4.077-0.51l-1.714-3.706l-1.807,3.613l-3.984,0.51
							L402.388,183.58z"/>
						<path style="fill:#CCF18B;" d="M433.657,187.703l-0.741-3.984l3.011-2.826l-4.077-0.51l-1.714-3.706l-1.807,3.613l-4.077,0.51
							l3.011,2.78l-0.788,4.03l3.567-1.899L433.657,187.703z"/>
					</g>
				</g>
			</g>
		</g>
		<g>
			<g transform="matrix( 1.0487518310546875, 0, 0, 1, -6.8,15.05) ">
				<g>
					<g id="Layer0_12_MEMBER_3_FILL">
						
							<linearGradient id="SVGID_00000011011315307622704910000011273495394782750395_" gradientUnits="userSpaceOnUse" x1="93.6596" y1="376.7548" x2="117.9713" y2="318.5974">
							<stop  offset="0.3128" style="stop-color:#B9EA5E"/>
							<stop  offset="1" style="stop-color:#D0EA5E"/>
						</linearGradient>
						<path style="fill:url(#SVGID_00000011011315307622704910000011273495394782750395_);" d="M69.602,340.137
							c-3.088,0-4.633,1.544-4.633,4.633v31.501c0,3.088,1.544,4.633,4.633,4.633h61.057c3.088,0,4.633-1.544,4.633-4.633V344.77
							c0-3.088-1.544-4.633-4.633-4.633H69.602z"/>
					</g>
				</g>
			</g>
			<g transform="matrix( 1, 0, 0, 1, 0,-7.6) ">
				<g>
					<g id="Layer0_12_MEMBER_5_FILL">
						<path style="fill:#FFFFFF;" d="M77.599,395.401v0.046c0,0.34,0.124,0.664,0.371,0.973c0.278,0.278,0.587,0.417,0.926,0.417
							h20.43c0.34,0,0.649-0.139,0.926-0.417c0.247-0.309,0.371-0.633,0.371-0.973v-0.046c0-0.34-0.124-0.664-0.371-0.973
							c-0.278-0.278-0.587-0.417-0.926-0.417h-20.43c-0.34,0-0.648,0.139-0.926,0.417C77.722,394.737,77.599,395.061,77.599,395.401
							 M71.113,391.694c-0.494,0.093-0.896,0.232-1.204,0.417c-0.34,0.185-0.602,0.432-0.788,0.741
							c-0.124,0.278-0.185,0.571-0.185,0.88c0,0.402,0.077,0.726,0.232,0.973c0.185,0.247,0.417,0.432,0.695,0.556
							c0.278,0.124,0.571,0.216,0.88,0.278c0.278,0.093,0.556,0.17,0.834,0.232c0.278,0.062,0.494,0.139,0.649,0.232
							c0.185,0.093,0.278,0.216,0.278,0.371c0.031,0.154-0.046,0.278-0.232,0.371c-0.154,0.093-0.417,0.139-0.788,0.139
							c-0.371,0-0.741-0.046-1.112-0.139c-0.371-0.154-0.695-0.309-0.973-0.463l-0.602,1.297c0.278,0.185,0.618,0.34,1.019,0.463
							c0.401,0.124,0.834,0.201,1.297,0.232v0.973h1.065v-1.019c0.463-0.062,0.865-0.185,1.204-0.371
							c0.278-0.216,0.494-0.463,0.649-0.741c0.154-0.247,0.232-0.54,0.232-0.88c0-0.371-0.093-0.68-0.278-0.927
							c-0.154-0.247-0.355-0.432-0.602-0.556c-0.278-0.155-0.571-0.263-0.88-0.324c-0.34-0.093-0.633-0.154-0.88-0.185
							c-0.278-0.062-0.494-0.139-0.648-0.232c-0.185-0.093-0.278-0.201-0.278-0.324c0-0.185,0.077-0.324,0.232-0.417
							c0.155-0.124,0.417-0.185,0.788-0.185c0.278,0,0.571,0.046,0.88,0.139c0.278,0.062,0.571,0.17,0.88,0.324l0.509-1.297
							c-0.247-0.154-0.509-0.278-0.787-0.371c-0.34-0.093-0.679-0.154-1.019-0.185v-0.973h-1.065V391.694 M86.91,387.942
							c-0.278,0.278-0.417,0.602-0.417,0.973v0.046c0,0.371,0.139,0.695,0.417,0.973c0.247,0.278,0.556,0.417,0.926,0.417h39.377
							c0.371,0,0.679-0.139,0.926-0.417c0.278-0.278,0.417-0.602,0.417-0.973v-0.046c0-0.371-0.139-0.695-0.417-0.973
							c-0.247-0.278-0.556-0.417-0.926-0.417H87.837C87.466,387.525,87.157,387.664,86.91,387.942 M68.241,381.734
							c-0.247,0.278-0.371,0.602-0.371,0.973v0.046c0,0.371,0.123,0.695,0.371,0.973c0.278,0.278,0.587,0.417,0.926,0.417h57.907
							c0.34,0,0.633-0.139,0.88-0.417c0.278-0.278,0.417-0.602,0.417-0.973v-0.046c0-0.371-0.139-0.695-0.417-0.973
							c-0.247-0.278-0.541-0.417-0.88-0.417H69.167C68.828,381.318,68.519,381.457,68.241,381.734 M68.241,375.712
							c-0.247,0.278-0.371,0.602-0.371,0.973v0.046c0,0.371,0.123,0.695,0.371,0.973c0.278,0.278,0.587,0.417,0.926,0.417h57.907
							c0.34,0,0.633-0.139,0.88-0.417c0.278-0.278,0.417-0.602,0.417-0.973v-0.046c0-0.371-0.139-0.695-0.417-0.973
							c-0.247-0.278-0.541-0.417-0.88-0.417H69.167C68.828,375.295,68.519,375.434,68.241,375.712 M112.018,371.96
							c0.247,0.278,0.556,0.417,0.927,0.417h14.315c0.371,0,0.68-0.139,0.927-0.417c0.278-0.278,0.417-0.602,0.417-0.973v-0.046
							c0-0.371-0.139-0.695-0.417-0.973c-0.247-0.278-0.556-0.417-0.927-0.417h-14.315c-0.371,0-0.679,0.139-0.927,0.417
							c-0.278,0.278-0.417,0.602-0.417,0.973v0.046C111.601,371.358,111.74,371.682,112.018,371.96 M68.241,371.96
							c0.278,0.278,0.587,0.417,0.926,0.417h39.423c0.34,0,0.649-0.139,0.927-0.417c0.247-0.278,0.371-0.602,0.371-0.973v-0.046
							c0-0.371-0.123-0.695-0.371-0.973c-0.278-0.278-0.587-0.417-0.927-0.417H69.167c-0.34,0-0.649,0.139-0.926,0.417
							c-0.247,0.278-0.371,0.602-0.371,0.973v0.046C67.87,371.358,67.994,371.682,68.241,371.96z"/>
					</g>
				</g>
			</g>
		</g>
		<g>
			<g transform="matrix( 1.0487518310546875, 0, 0, 1, 334.1,-11.55) ">
				<g>
					<g id="Layer0_15_MEMBER_0_FILL">
						
							<linearGradient id="SVGID_00000150810806759096524110000010182430573203986344_" gradientUnits="userSpaceOnUse" x1="70.6006" y1="385.3556" x2="84.9015" y2="330.0586">
							<stop  offset="0.3128" style="stop-color:#B9EA5E"/>
							<stop  offset="1" style="stop-color:#E2EA5E"/>
						</linearGradient>
						<path style="fill:url(#SVGID_00000150810806759096524110000010182430573203986344_);" d="M45.714,342.092
							c-3.088,0-4.633,1.544-4.633,4.633v31.501c0,3.088,1.544,4.633,4.633,4.633h61.057c3.088,0,4.633-1.544,4.633-4.633v-31.501
							c0-3.088-1.544-4.633-4.633-4.633H45.714z"/>
					</g>
				</g>
			</g>
			<g transform="matrix( 1, 0, 0, 1, 0,-34.2) ">
				<g>
					<g id="Layer0_15_MEMBER_1_FILL">
						<path style="fill:#FFFFFF;" d="M421.288,391.889c0.247,0.278,0.556,0.417,0.926,0.417h20.846c0.371,0,0.679-0.139,0.927-0.417
							c0.278-0.278,0.417-0.602,0.417-0.973v-0.046c0-0.37-0.139-0.695-0.417-0.973c-0.247-0.278-0.556-0.417-0.927-0.417h-20.846
							c-0.371,0-0.679,0.139-0.926,0.417c-0.278,0.278-0.417,0.602-0.417,0.973v0.046
							C420.871,391.287,421.01,391.611,421.288,391.889 M402.387,372.942c0,0.371,0.124,0.695,0.371,0.973
							c0.278,0.278,0.587,0.417,0.927,0.417h39.423c0.34,0,0.649-0.139,0.927-0.417c0.247-0.278,0.371-0.602,0.371-0.973v-0.046
							c0-0.371-0.124-0.695-0.371-0.973c-0.278-0.278-0.587-0.417-0.927-0.417h-39.423c-0.34,0-0.649,0.139-0.927,0.417
							c-0.247,0.278-0.371,0.602-0.371,0.973V372.942 M384.089,373.915c0.247,0.278,0.556,0.417,0.927,0.417h14.315
							c0.371,0,0.679-0.139,0.927-0.417c0.278-0.278,0.417-0.602,0.417-0.973v-0.046c0-0.371-0.139-0.695-0.417-0.973
							c-0.247-0.278-0.556-0.417-0.927-0.417h-14.315c-0.371,0-0.68,0.139-0.927,0.417c-0.278,0.278-0.417,0.602-0.417,0.973v0.046
							C383.671,373.312,383.81,373.637,384.089,373.915 M384.089,377.667c-0.247,0.278-0.371,0.602-0.371,0.973v0.046
							c0,0.371,0.124,0.695,0.371,0.973c0.278,0.278,0.587,0.417,0.927,0.417h50.495c0.371,0,0.664-0.139,0.88-0.417
							c0.278-0.278,0.417-0.602,0.417-0.973v-0.046c0-0.371-0.139-0.695-0.417-0.973c-0.216-0.278-0.51-0.417-0.88-0.417h-50.495
							C384.675,377.25,384.366,377.389,384.089,377.667 M393.446,397.402c0,0.34,0.124,0.664,0.371,0.973
							c0.278,0.278,0.587,0.417,0.926,0.417h20.43c0.34,0,0.648-0.139,0.927-0.417c0.247-0.309,0.371-0.633,0.371-0.973v-0.046
							c0-0.34-0.124-0.664-0.371-0.973c-0.278-0.278-0.587-0.417-0.927-0.417h-20.43c-0.34,0-0.648,0.139-0.926,0.417
							c-0.247,0.309-0.371,0.633-0.371,0.973V397.402 M389.833,394.205c-0.247-0.154-0.51-0.278-0.788-0.371
							c-0.34-0.093-0.68-0.154-1.019-0.185v-0.973h-1.065v0.973c-0.494,0.093-0.896,0.232-1.204,0.417
							c-0.34,0.185-0.602,0.432-0.788,0.741c-0.124,0.278-0.185,0.571-0.185,0.88c0,0.402,0.077,0.726,0.232,0.973
							c0.185,0.247,0.417,0.432,0.695,0.556c0.278,0.124,0.571,0.216,0.88,0.278c0.278,0.093,0.556,0.17,0.834,0.232
							c0.278,0.062,0.494,0.139,0.649,0.232c0.185,0.093,0.278,0.216,0.278,0.371c0.031,0.154-0.046,0.278-0.232,0.371
							c-0.155,0.093-0.417,0.139-0.788,0.139s-0.741-0.046-1.112-0.139c-0.371-0.154-0.695-0.309-0.973-0.463l-0.602,1.297
							c0.278,0.185,0.618,0.34,1.019,0.463c0.402,0.124,0.834,0.201,1.297,0.232v0.973h1.065v-1.019
							c0.463-0.062,0.865-0.185,1.204-0.371c0.278-0.216,0.494-0.463,0.649-0.741c0.154-0.247,0.232-0.54,0.232-0.88
							c0-0.371-0.093-0.68-0.278-0.927c-0.154-0.247-0.355-0.432-0.602-0.556c-0.278-0.155-0.571-0.263-0.88-0.324
							c-0.34-0.093-0.633-0.154-0.88-0.185c-0.278-0.062-0.494-0.139-0.648-0.232c-0.185-0.093-0.278-0.201-0.278-0.324
							c0-0.185,0.077-0.324,0.232-0.417c0.154-0.124,0.417-0.185,0.788-0.185c0.278,0,0.571,0.046,0.88,0.139
							c0.278,0.062,0.571,0.17,0.88,0.324L389.833,394.205 M384.089,385.681c0.278,0.278,0.587,0.417,0.927,0.417h57.907
							c0.34,0,0.633-0.139,0.88-0.417c0.278-0.278,0.417-0.602,0.417-0.973v-0.046c0-0.371-0.139-0.695-0.417-0.973
							c-0.247-0.278-0.54-0.417-0.88-0.417h-57.907c-0.34,0-0.649,0.139-0.927,0.417c-0.247,0.278-0.371,0.602-0.371,0.973v0.046
							C383.718,385.079,383.841,385.403,384.089,385.681z"/>
					</g>
				</g>
			</g>
		</g>
	</g>
</g>
</svg>
