<svg width="640" height="480" xmlns="http://www.w3.org/2000/svg" xmlns:svg="http://www.w3.org/2000/svg">
 <!-- Created with SVG-edit - https://github.com/SVG-Edit/svgedit-->
 <g class="layer">
  <title>Layer 1</title>
  <path d="m0.1,0.1c213.37,0.06 427.73,-0.08 639.9,0.08l-0.1,479.72l-639.8,0l0,-479.8z" fill="#9bface" id="svg_1" stroke="#000000" stroke-opacity="0"/>
  <path d="m639.76,74.41l0,-25.92l-138.77,30.01l-15.05,-23.05c-0.04,-0.1 -0.11,-0.24 -0.14,-0.38c-0.11,-0.16 -0.22,-0.36 -0.36,-0.54c-0.11,-0.16 -0.22,-0.32 -0.32,-0.48l0,-0.08l-35.62,-53.9l-46.12,0l33.78,51.47l-218.7,44.8l-70.55,-96.27l-46.81,0l84.77,115.88c0.07,0.12 0.14,0.24 0.14,0.36c0.29,0.3 0.5,0.56 0.69,0.84l26.93,38.3l-166.37,38.46l-0.97,0.28l-46.16,10.69l0,26.22l42.8,-9.95l91.6,130.55c0.18,0.26 0.36,0.46 0.5,0.66l36.45,51.85l-171.35,38.76l0,26.02l187.23,-42.28l37.28,53.16l46.66,0l-51.17,-72.76c-0.07,-0.2 -0.18,-0.4 -0.32,-0.66l-36.77,-52.14l144.93,-35.87l113.53,161.41l46.63,0l-120.22,-171.08l136.96,-32.69l134.9,169.2l0,-59.56l-58,-72.76l58,-13.2l0,-26.12l-75.57,17.29l-28.26,-35.61c-2.42,-2.98 -6.42,-5.1 -12.02,-6.32c-5.48,-1.2 -11.01,-1.18 -16.56,0.1l-155.33,37.07l-47.13,-67.07l167.84,-37.17c0.36,-0.06 0.76,-0.16 1.19,-0.28c56.09,-13.62 70.12,-40.4 42.12,-80.29l0.18,0.2l-0.36,-0.38l123.9,-26.75m-164.17,35.69c17,24.23 10.36,40.78 -19.88,49.63l-166.51,36.99l-27.43,-39.14c-0.07,-0.04 -0.11,-0.1 -0.18,-0.18c-0.07,-0.12 -0.18,-0.24 -0.32,-0.38l-26.75,-38.19l217.51,-44.6l15.19,23.13c0.18,0.22 0.29,0.4 0.36,0.56c0.11,0.14 0.14,0.26 0.14,0.38c0.11,0.02 0.14,0.06 0.18,0.08l7.5,11.53l0.18,0.18m-218.85,106.67c0.04,0.06 0.04,0.1 0,0.1l55.5,79.08l-145.11,35.87l-84.08,-119.96l146.27,-33.92l27.43,38.84" fill="#FFFFFF" id="svg_2" transform="matrix(1 0 0 1 0 0)"/>
  <g id="svg_3" transform="matrix(1 0 0 1 0 0)">
   <g id="svg_4" transform="matrix(1.76608 -0.109378 0.144717 1.33481 -100.727 -119.649)">
    <path d="m81.28,337.79c0.03,-0.34 0.05,-0.68 0.05,-1.02c0,-2.75 -0.99,-5.11 -2.97,-7.09c-1.95,-1.94 -4.29,-2.91 -7.04,-2.92c-2.75,0 -5.11,0.98 -7.09,2.92c-1.94,1.98 -2.92,4.34 -2.92,7.09c0,0.34 0.02,0.68 0.05,1.02c0.12,1.24 0.52,2.56 1.2,3.98c0.1,0.19 0.21,0.39 0.33,0.61c1.91,4.26 4.32,8.29 7.22,12.09c1.18,1.39 2.18,1.39 3.02,0c2.5,-4.11 4.84,-8.33 7.04,-12.65c0.62,-1.2 0.99,-2.55 1.11,-4.03m-13.81,-2.27c0,-1.05 0.38,-1.96 1.12,-2.73c0.77,-0.74 1.68,-1.11 2.73,-1.11c1.05,0 1.95,0.37 2.69,1.11c0.77,0.77 1.16,1.68 1.16,2.73c0,1.05 -0.39,1.95 -1.16,2.69c-0.74,0.77 -1.64,1.16 -2.69,1.16c-1.05,0 -1.96,-0.39 -2.73,-1.16c-0.74,-0.74 -1.12,-1.64 -1.12,-2.69z" fill="#ff6969" id="svg_5"/>
   </g>
   <g id="svg_6" transform="matrix(1.76608 -0.109378 0.144717 1.33481 -53.2279 -76.0798)">
    <path d="m43.29,353.87l0,-10.19l7.73,0l0,10.19l8.99,0l0,-19.13l5.42,0l-5.42,-10.98l-25.34,0l-5.42,10.98l5,0l0,19.13l9.04,0z" fill="#ff6969" id="svg_7"/>
   </g>
   <g id="svg_8" transform="matrix(1.85883 -0.115139 0.144717 1.33481 -81.6604 -86.6981)">
    <path d="m80.77,366.17c-0.89,-0.89 -1.97,-1.34 -3.24,-1.34l-36.55,0c-1.27,0 -2.36,0.45 -3.29,1.35c-0.9,0.92 -1.34,2.02 -1.34,3.28l0,3.66c0,1.27 0.45,2.35 1.34,3.25c0.93,0.92 2.02,1.39 3.29,1.39l36.55,0c1.27,0 2.35,-0.47 3.24,-1.39c0.93,-0.9 1.39,-1.98 1.39,-3.25l0,-3.66c0,-1.26 -0.46,-2.36 -1.39,-3.29z" fill="#ffc95d" id="svg_9"/>
   </g>
   <g id="svg_10" transform="matrix(2.22255 -0.137668 0.182147 1.67982 -314.027 -187.235)">
    <path d="m134.9,359.66l-1.02,1.99l-2.23,0.28l1.62,1.53l-0.41,2.27l1.99,-1.07l1.99,1.11l-0.46,-2.22l1.71,-1.53l-2.27,-0.32l-0.92,-2.04m6.85,0l-0.97,1.99l-2.27,0.28l1.62,1.53l-0.42,2.27l2,-1.07l1.99,1.11l-0.42,-2.22l1.67,-1.53l-2.27,-0.32l-0.93,-2.04m5.89,1.99l-2.23,0.28l1.62,1.53l-0.46,2.27l1.99,-1.07l1.99,1.11l-0.41,-2.22l1.67,-1.53l-2.23,-0.32l-0.97,-2.04l-0.97,1.99z" fill="#ffffff" id="svg_11"/>
    <path d="m156.44,361.69l-0.93,-2.03l-1.02,1.99l-2.22,0.28l1.62,1.53l-0.42,2.27l1.99,-1.07l2,1.11l-0.47,-2.22l1.72,-1.53l-2.27,-0.33m4.96,-0.04l-2.27,0.28l1.66,1.53l-0.41,2.27l1.94,-1.07l1.99,1.11l-0.37,-2.22l1.62,-1.53l-2.22,-0.32l-0.97,-2.04l-0.97,1.99z" fill="#ffd88d" id="svg_12"/>
   </g>
  </g>
  <g id="svg_23">
   <g id="svg_24" transform="matrix(1.76608 -0.105245 0.144717 1.28437 -311.089 27.2448)">
    <path d="m422.62,248.04c0.03,-0.34 0.05,-0.68 0.05,-1.02c0,-2.75 -0.99,-5.11 -2.97,-7.08c-1.95,-1.95 -4.29,-2.92 -7.04,-2.92c-2.75,0 -5.11,0.97 -7.09,2.92c-1.94,1.97 -2.92,4.33 -2.92,7.08c0,0.34 0.02,0.68 0.05,1.02c0.12,1.24 0.52,2.56 1.2,3.99c0.1,0.18 0.21,0.38 0.33,0.6c1.91,4.26 4.32,8.29 7.22,12.09c1.18,1.39 2.18,1.39 3.02,0c2.5,-4.11 4.84,-8.32 7.04,-12.65c0.62,-1.2 0.99,-2.54 1.11,-4.03m-13.81,-2.27c0,-1.05 0.38,-1.96 1.12,-2.73c0.77,-0.74 1.68,-1.11 2.73,-1.11c1.05,0 1.95,0.37 2.69,1.11c0.77,0.77 1.16,1.68 1.16,2.73c0,1.05 -0.39,1.95 -1.16,2.69c-0.74,0.77 -1.64,1.16 -2.69,1.16c-1.05,0 -1.96,-0.39 -2.73,-1.16c-0.74,-0.74 -1.12,-1.64 -1.12,-2.69z" fill="#ff6969" id="svg_25"/>
   </g>
   <g id="svg_26" transform="matrix(1.76608 -0.105245 0.144717 1.28437 -263.701 69.1674)">
    <path d="m384.63,264.12l0,-10.19l7.74,0l0,10.19l8.98,0l0,-19.13l5.42,0l-5.42,-10.98l-25.34,0l-5.42,10.98l5.01,0l0,19.13l9.03,0z" fill="#ff6969" id="svg_27"/>
   </g>
   <g id="svg_28" transform="matrix(1.85883 -0.110788 0.144717 1.28437 -292.022 58.9503)">
    <path d="m405.07,276.43c-0.89,-0.9 -1.97,-1.35 -3.24,-1.35l-36.55,0c-1.26,0 -2.36,0.45 -3.29,1.35c-0.89,0.92 -1.34,2.02 -1.34,3.28l0,3.67c0,1.26 0.45,2.34 1.34,3.24c0.93,0.92 2.03,1.39 3.29,1.39l36.55,0c1.27,0 2.35,-0.47 3.24,-1.39c0.93,-0.9 1.39,-1.98 1.39,-3.24l0,-3.66c0,-1.27 -0.46,-2.37 -1.39,-3.29z" fill="#ffc95d" id="svg_29"/>
   </g>
   <g id="svg_30" transform="matrix(2.22255 -0.132466 0.182147 1.61634 -258.238 -202.478)">
    <path d="m299.45,379.75l-1.02,1.99l-2.22,0.28l1.62,1.53l-0.42,2.27l2,-1.07l0.04,0l0,-5m-17.42,2.36l-2.27,-0.32l-0.92,-2.04l-1.02,1.99l-2.22,0.28l1.62,1.53l-0.42,2.27l1.99,-1.07l1.99,1.12l-0.46,-2.23l1.71,-1.53m3.66,-2.36l-0.97,1.99l-2.27,0.28l1.62,1.53l-0.42,2.27l2,-1.07l1.99,1.11l-0.42,-2.22l1.67,-1.53l-2.27,-0.32l-0.93,-2.04m5.89,1.99l-2.23,0.28l1.62,1.53l-0.46,2.27l1.99,-1.07l1.99,1.11l-0.41,-2.22l1.67,-1.53l-2.23,-0.32l-0.97,-2.04l-0.97,1.99z" fill="#ffffff" id="svg_31"/>
    <path d="m302.65,382.11l-2.27,-0.32l-0.93,-2.04l0,5l1.95,1.11l-0.46,-2.22l1.71,-1.53m2.69,-0.37l-2.27,0.28l1.66,1.53l-0.41,2.27l1.94,-1.07l1.99,1.11l-0.37,-2.22l1.62,-1.53l-2.22,-0.32l-0.97,-2.04l-0.97,1.99z" fill="#ffd88d" id="svg_32"/>
   </g>
  </g>
  <g id="svg_13" transform="matrix(1 0 0 1 0 0)">
   <g id="svg_14" transform="matrix(1.76608 -0.105245 0.144717 1.28437 -311.089 27.2448)">
    <path d="m356.79,79.11c0.03,-0.34 0.05,-0.68 0.05,-1.02c0,-2.75 -0.99,-5.11 -2.97,-7.08c-1.95,-1.95 -4.29,-2.92 -7.04,-2.92c-2.75,0 -5.11,0.97 -7.09,2.92c-1.94,1.97 -2.92,4.33 -2.92,7.08c0,0.34 0.02,0.68 0.05,1.02c0.12,1.24 0.52,2.56 1.2,3.99c0.1,0.18 0.21,0.38 0.33,0.6c1.91,4.26 4.32,8.29 7.22,12.09c1.18,1.39 2.18,1.39 3.02,0c2.5,-4.11 4.84,-8.32 7.04,-12.65c0.62,-1.2 0.99,-2.54 1.11,-4.03m-13.81,-2.27c0,-1.05 0.38,-1.96 1.12,-2.73c0.77,-0.74 1.68,-1.11 2.73,-1.11c1.05,0 1.95,0.37 2.69,1.11c0.77,0.77 1.16,1.68 1.16,2.73c0,1.05 -0.39,1.95 -1.16,2.69c-0.74,0.77 -1.64,1.16 -2.69,1.16c-1.05,0 -1.96,-0.39 -2.73,-1.16c-0.74,-0.74 -1.12,-1.64 -1.12,-2.69z" fill="#ff6969" id="svg_15"/>
   </g>
   <g id="svg_16" transform="matrix(1.76608 -0.105245 0.144717 1.28437 -263.701 69.1674)">
    <path d="m318.8,95.19l0,-10.19l7.74,0l0,10.19l8.98,0l0,-19.13l5.42,0l-5.42,-10.98l-25.34,0l-5.42,10.98l5.01,0l0,19.13l9.03,0z" fill="#ff6969" id="svg_17"/>
   </g>
   <g id="svg_18" transform="matrix(1.85883 -0.110788 0.144717 1.28437 -292.022 58.9503)">
    <path d="m342.54,107.5c-0.89,-0.9 -1.97,-1.35 -3.24,-1.35l-36.55,0c-1.26,0 -2.36,0.45 -3.29,1.35c-0.89,0.92 -1.34,2.02 -1.34,3.28l0,3.67c0,1.26 0.45,2.34 1.34,3.24c0.93,0.92 2.03,1.39 3.29,1.39l36.55,0c1.27,0 2.35,-0.47 3.24,-1.39c0.93,-0.9 1.39,-1.98 1.39,-3.24l0,-3.66c0,-1.27 -0.46,-2.37 -1.39,-3.29z" fill="#ffc95d" id="svg_19"/>
   </g>
   <g id="svg_20" transform="matrix(2.22255 -0.132466 0.182147 1.61634 -258.238 -202.478)">
    <path d="m247.14,245.52l-1.02,1.99l-2.22,0.28l1.62,1.53l-0.42,2.27l2,-1.07l0.04,0l0,-5m-17.42,2.36l-2.27,-0.32l-0.92,-2.04l-1.02,1.99l-2.22,0.28l1.62,1.53l-0.42,2.27l1.99,-1.07l1.99,1.12l-0.46,-2.23l1.71,-1.53m3.66,-2.36l-0.97,1.99l-2.27,0.28l1.62,1.53l-0.42,2.27l2,-1.07l1.99,1.11l-0.42,-2.22l1.67,-1.53l-2.27,-0.32l-0.93,-2.04m5.89,1.99l-2.23,0.28l1.62,1.53l-0.46,2.27l1.99,-1.07l1.99,1.11l-0.41,-2.22l1.67,-1.53l-2.23,-0.32l-0.97,-2.04l-0.97,1.99z" fill="#ffffff" id="svg_21"/>
    <path d="m250.34,247.88l-2.27,-0.32l-0.93,-2.04l0,5l1.95,1.11l-0.46,-2.22l1.71,-1.53m2.69,-0.37l-2.27,0.28l1.66,1.53l-0.41,2.27l1.94,-1.07l1.99,1.11l-0.37,-2.22l1.62,-1.53l-2.22,-0.32l-0.97,-2.04l-0.97,1.99z" fill="#ffd88d" id="svg_22"/>
   </g>
  </g>
  <g id="svg_33" stroke-linecap="round" stroke-linejoin="round" stroke-width="0" transform="matrix(1 0 0 1 0 0) matrix(3.87295 0 0 3.58196 -2108.88 -226.502)">
   <path d="m614.23,151.81l2.87,-2.94l0,0c2.38,-3.05 3.67,-6.89 3.82,-11.06c0.33,-9.51 -7.81,-17.67 -18,-18c-9.94,-0.32 -18,8.06 -18,18s8.06,18 18,18c4.28,0 8.22,-1.5 11.31,-4l0,0z" fill="#D2F0EA" id="svg_39"/>
   <g id="svg_40">
    <circle cx="602.92" cy="137.81" fill="#FFFFFF" id="svg_41" r="13.76"/>
    <g id="svg_42">
     <path class="st2" d="m593.15,138.81c-0.55,0 -1,-0.45 -1,-1c0,-5.94 4.83,-10.76 10.76,-10.76c0.55,0 1,0.45 1,1c0,0.55 -0.45,1 -1,1c-4.83,0 -8.76,3.93 -8.76,8.76c0,0.56 -0.45,1 -1,1z" id="svg_43"/>
    </g>
   </g>
   <path d="m631.45,159.8l-12.13,-10.07l-0.68,0.68l-1.54,-1.54l-2.87,2.94l1.51,1.51l-0.68,0.68l10.08,12.12c1.69,2.03 4.75,2.17 6.62,0.31c1.86,-1.87 1.72,-4.94 -0.31,-6.63z" fill="#7C64BD" id="svg_44"/>
   <path d="m602.92,151.58c-7.59,0 -13.76,-6.17 -13.76,-13.76l0,11.59c3.3,3.92 8.24,6.41 13.76,6.41c4.29,0 8.22,-1.5 11.31,-4.01l0,0l2.45,-2.51l0,-11.49c0,7.59 -6.17,13.77 -13.76,13.77z" fill="#B4E6DD" id="svg_45"/>
  </g>
 </g>
</svg>