 <svg width="640" height="480" xmlns="http://www.w3.org/2000/svg" xmlns:svg="http://www.w3.org/2000/svg">
      <g>
        <title>Someone looking for stores nearby</title>
        <g>
          <path
            d="m588.84,2.03c-8.56,1.62 -17.43,8.95 -21.11,17.47c-5.24,12.11 -3.99,21.66 6.88,52.78c5.79,16.56 18.38,48.75 18.86,48.2c0.38,-0.43 7.83,-19.05 11.71,-29.27c8.74,-23 15.18,-43.32 16.5,-52.03c3.2,-21.09 -14.14,-40.69 -32.84,-37.15m8.99,15.02c14.18,4.27 18.79,23.97 8.24,35.14c-8.46,8.97 -20.59,7.79 -27.51,-2.65c-10.28,-15.47 2.77,-37.47 19.27,-32.49m-313.55,33.91c-0.3,0.43 -2.63,5.45 -5.17,11.17l-4.63,10.43l0,5.53l0,5.53l4.83,0l4.83,0l0,-5.61l0,-5.61l4.06,-10.24c2.23,-5.65 3.93,-10.65 3.77,-11.11c-0.38,-1.11 -6.92,-1.17 -7.69,-0.08m15.77,4.86c-5.26,15.51 -5.7,17.31 -5.7,23.02l0,5.38l-4.84,0l-4.83,0l0,40.39l0,40.39l1.22,0.32c2.68,0.75 46.26,0.02 46.34,-0.75c0.04,-0.43 0.09,-14.43 0.13,-31.14l0.07,-30.35l16.45,-0.16c10.37,-0.12 16.71,0.04 17.16,0.43c0.59,0.51 0.75,6.42 0.86,31.26l0.14,30.63l10.19,0.04c5.6,0.02 16.23,-0.02 23.61,-0.1l13.43,-0.16l0.18,-40.37l0.16,-40.39l-5.02,-0.16l-5.01,-0.18l-0.14,-5.77c-0.14,-5.47 -0.36,-6.42 -3.75,-16.72l-3.61,-10.91l-3.7,-0.18c-4.97,-0.24 -4.9,-0.65 -1.61,11.42c2.66,9.78 2.9,11.09 2.9,16.56l0,5.91l-5.04,0l-5.02,0l-0.25,-6.54c-0.23,-6.42 -3.58,-24.86 -4.86,-26.72c-0.73,-1.09 -7.29,-1.03 -7.67,0.08c-0.16,0.47 0.45,5.81 1.36,11.9c1.54,10.43 2.04,18.16 1.32,20.33c-0.27,0.77 -1.25,0.95 -5.11,0.95l-4.76,0l0,-4.03c0,-3.93 -1.98,-27.69 -2.45,-29.25c-0.16,-0.57 -1.29,-0.75 -4.11,-0.61l-3.88,0.18l-0.02,16.7l-0.02,16.7l-4.83,0l-4.83,0l0.14,-16.86l0.13,-16.84l-3.99,0l-4,0l-0.27,1.96c-0.66,4.7 -1.97,21.26 -2.07,26.28l-0.13,5.47l-4.83,0l-4.83,0l-0.14,-6.07c-0.09,-4.49 0.27,-8.77 1.43,-16.4c1.77,-11.86 1.91,-11.36 -2.95,-11.11l-3.7,0.18l-2.06,9.11c-1.5,6.66 -2.13,10.81 -2.31,15.49c-0.39,9.86 0.07,9.11 -5.56,9.11c-4.72,0 -4.83,-0.02 -5.15,-1.56c-0.86,-3.85 0.2,-11.46 2.97,-21.4c3.18,-11.44 3.24,-11.05 -1.56,-11.05l-3.66,0l-1.91,5.61m106.4,-5c0,0.34 1.73,4.94 3.84,10.18c3.83,9.47 3.86,9.6 4.17,15.93l0.3,6.38l4.83,0l4.83,0l0.16,-4.98l0.16,-5l-4.97,-11.11c-2.74,-6.09 -5.22,-11.3 -5.52,-11.54c-0.86,-0.71 -7.79,-0.57 -7.79,0.14m-4.42,43.12l6.02,0l0,24.01l0,23.99l-16.36,0l-16.36,0l0,-23.97l0,-23.95l1.47,-0.28c0.82,-0.16 5.47,-0.18 10.33,-0.06c4.86,0.14 11.57,0.24 14.89,0.26m-77.78,24.15l0.14,23.85l-16.37,0l-16.37,0l0,-24.01l0,-24.01l16.23,0.16l16.23,0.16l0.14,23.85m169.17,52.09l-4.92,10.93l0.02,5.65l0,5.65l4.7,-0.18l4.68,-0.18l0.3,-6.07c0.25,-5.36 0.52,-6.68 2.34,-11.24c2.81,-7 5.67,-14.74 5.67,-15.26c0,-0.22 -1.77,-0.36 -3.93,-0.32l-3.93,0.1l-4.93,10.93m21.93,-9.88c-4.52,12.09 -6.97,21.44 -6.97,26.62l0,5.38l-4.7,0.18l-4.7,0.16l-0.13,40.55l-0.14,40.55l23.61,0l23.6,0l0,-30.97l0,-30.97l17.16,0l17.18,0l0,19.58c0,10.79 0.16,24.72 0.34,30.99l0.36,11.38l23.53,0l23.51,0l0,-40.69l0,-40.71l-4.83,0l-4.83,0l0,-5.3c-0.02,-4.72 -0.27,-6.07 -2.2,-12c-1.2,-3.66 -2.38,-7.37 -2.63,-8.2c-0.25,-0.83 -0.93,-2.87 -1.52,-4.55l-1.05,-3.04l-4.08,-0.18c-4.74,-0.2 -4.56,-0.67 -2.52,6.7c4.29,15.45 4.34,15.73 4.34,21.22l0,5.36l-5.09,0l-5.09,0l0,-4.9c0,-3.32 -0.52,-7.31 -1.56,-12.31c-0.86,-4.07 -1.86,-8.89 -2.22,-10.73c-1.07,-5.41 -1.13,-5.47 -5.27,-5.47c-4.67,0 -4.43,-0.91 -2.7,10.49c1,6.5 1.52,12.09 1.54,16.4l0.02,6.52l-5.09,0l-5.09,0l-0.04,-6.52c-0.04,-3.6 -0.45,-11.03 -0.95,-16.56l-0.89,-10.02l-4.02,0l-4.04,0l0.21,16.56l0.2,16.54l-5.24,0l-5.26,0l0.32,-16.72l0.32,-16.72l-4.13,0.16l-4.13,0.18l-0.63,5.77c-0.36,3.18 -0.82,10.63 -1.04,16.58l-0.38,10.79l-5.15,-0.16l-5.15,-0.18l-0.16,-4.62c-0.11,-3.16 0.38,-8.04 1.48,-15.18c2.22,-14.33 2.43,-13.12 -2.32,-13.24l-3.97,-0.1l-1.73,8.38c-0.97,4.6 -2.07,9.86 -2.48,11.68c-0.41,1.82 -0.73,5.59 -0.73,8.36l0,5.02l-5.09,0l-5.09,0l0,-5.32c0,-4.7 0.34,-6.6 2.91,-16.22c1.59,-6.01 2.79,-11.13 2.65,-11.38c-0.7,-1.28 -7.72,-0.53 -8.24,0.87m105.13,-0.51c0,0.49 1.75,5.2 3.88,10.49c3.83,9.45 3.88,9.72 4.17,15.69l0.27,6.07l4.7,0.18l4.68,0.18l0,-5.75l0,-5.75l-4.63,-10.22c-2.54,-5.63 -4.86,-10.57 -5.15,-10.99c-0.8,-1.11 -7.92,-1.03 -7.92,0.1m-610.11,12.37c-9.94,21.82 -9.46,20.55 -9.46,25.02c0,6.24 -0.13,6.11 5.42,6.11l4.77,0l0,-5.47c0,-5.89 0.5,-7.73 5.86,-20.87c2.77,-6.84 2.88,-6.48 -1.84,-6.48c-3.83,0 -4.04,0.08 -4.76,1.68m16.32,3.95c-1,3.08 -2.61,8 -3.61,10.91c-1.57,4.68 -1.79,5.99 -1.79,11.09l0,5.79l-4.83,0l-4.83,0l0,40.69l0,40.71l23.6,0l23.6,0l0,-31.3l0,-31.28l17.16,0c15.96,0 17.18,0.08 17.29,1.05c0.05,0.59 0.11,14.6 0.13,31.14l0.04,30.08l23.74,0.14l23.72,0.16l0,-40.71l0,-40.69l-4.83,0l-4.83,0l0,-5.53c0,-5.32 -0.13,-5.97 -3.61,-16.7l-3.63,-11.17l-4.18,-0.02c-3.75,0 -4.17,0.12 -3.93,1.07c0.16,0.57 1.52,5.65 3.02,11.28c2.5,9.41 2.72,10.65 2.57,15.49l-0.16,5.28l-4.92,0.16l-4.92,0.18l-0.32,-1.7c-0.18,-0.93 -0.21,-3.2 -0.07,-5.02c0.25,-3.08 -1.43,-12.98 -4.06,-24.15l-0.61,-2.59l-4.25,0c-3.81,0 -4.24,0.12 -3.97,1.07c1.18,4.37 3,19.96 3,25.71l0,6.68l-4.97,-0.18l-4.95,-0.16l-0.11,-4.27c-0.07,-2.33 -0.54,-9.78 -1.04,-16.54l-0.93,-12.31l-4.24,0l-4.24,0l0.38,16.7l0.39,16.72l-5.26,0l-5.26,0l0.3,-16.74l0.3,-16.72l-4.11,0.16l-4.11,0.18l-0.66,6.07c-0.38,3.34 -0.86,10.73 -1.07,16.4l-0.41,10.34l-5.09,0l-5.09,0l-0.16,-5.08c-0.11,-3.46 0.27,-7.67 1.2,-13.36c0.73,-4.55 1.5,-9.74 1.7,-11.48l0.36,-3.2l-4.06,0c-3.4,0 -4.09,0.18 -4.31,1.07c-0.14,0.57 -0.91,4.19 -1.7,8.04c-0.8,3.85 -1.79,8.4 -2.2,10.12c-0.41,1.72 -0.75,5.63 -0.75,8.68l0,5.55l-4.97,-0.18l-4.95,-0.16l-0.16,-5.3c-0.16,-5.53 -0.29,-4.88 4.15,-21.44c0.89,-3.34 1.63,-6.13 1.64,-6.21c0,-0.1 -1.88,-0.16 -4.17,-0.16l-4.18,0l-1.81,5.63m106.71,-5.04c0,0.32 0.63,2.17 1.39,4.11c6.47,16.36 6.65,17.01 6.65,22.71l0,5.41l4.83,0l4.84,0l0,-5.49l0,-5.47l-4.84,-10.93l-4.83,-10.93l-4.02,0c-2.23,0 -4.02,0.26 -4.02,0.59m97.14,28.73c3.06,13.66 3.09,13.95 1.43,13.52c-11.19,-2.85 -22.1,-5.93 -24.01,-6.74c-2.95,-1.28 -11.05,-1.36 -19.22,-0.18l-5.56,0.79l-1.82,3.22c-1,1.78 -1.82,3.46 -1.82,3.75c0,0.28 -2.27,5.57 -5.06,11.72l-5.06,11.22l-0.57,11.2c-0.32,6.15 -0.72,13.56 -0.88,16.46c-0.32,5.47 -0.04,6.38 1.81,5.71c0.7,-0.24 1.86,-3.5 4.33,-12.03c5.26,-18.28 7.53,-21.4 8.31,-11.44l0.36,4.51l-3.34,8.54c-1.86,4.7 -4.5,11.07 -5.9,14.17c-3.47,7.67 -3.68,7.43 6.58,7.43c14.12,0 18.93,-2.17 22.95,-10.45c0.61,-1.23 2.59,-5.14 4.42,-8.68c3.59,-6.96 3.63,-7.09 5.58,-22.17c2.25,-17.35 0.16,-15.24 16.37,-16.36c17.48,-1.21 17.23,-0.53 8.04,-21.32c-6.19,-13.97 -6.51,-14.58 -7.99,-14.58l-1.54,0l2.59,11.7m307.74,25.67c0.09,12.35 0.02,23.08 -0.14,23.85l-0.29,1.36l-16.09,0l-16.09,0l0,-24.01l0,-23.99l16.23,0.16l16.23,0.16l0.14,22.47m83.81,1.21l0,23.99l-9.58,0c-11.87,0 -14.55,0.34 -14.55,1.9c0,1.19 -1.32,1.56 -1.88,0.53c-0.5,-0.91 -1.34,-0.73 -1.34,0.3c0,1.05 -0.97,1.15 -2.95,0.3c-0.97,-0.4 -1.75,-0.4 -2.48,0.04c-2.11,1.28 -3.04,0.4 -1.41,-1.34l1.48,-1.58l0,-24.07l0,-24.07l16.36,0l16.36,0l0,23.99m-571.3,11.58l0,24.64l1.22,-0.43c1.2,-0.43 1.2,-0.4 0.18,0.87c-0.91,1.17 -0.93,1.3 -0.13,1.3c0.5,0 1.05,-0.4 1.22,-0.91c0.46,-1.34 1.81,-1.11 1.81,0.3c0,1.05 -0.36,1.21 -2.72,1.21c-1.59,0 -2.57,-0.24 -2.4,-0.57c1.5,-2.73 -0.3,-3.08 -16.2,-3.08l-15.16,0l0,-23.99l0,-23.99l16.09,0l16.09,0l0,24.64m84.09,-0.51l0.14,23.83l-16.14,0.16c-8.88,0.1 -16.25,0.06 -16.37,-0.08c-0.13,-0.14 -0.21,-11.01 -0.21,-24.17l0,-23.89l16.23,0.16l16.21,0.16l0.14,23.83m245.91,55.37c-0.39,0.28 -2.86,5.26 -5.49,11.05l-4.79,10.57l0,5.65l0,5.65l4.68,-0.16l4.7,-0.18l0.32,-6.07c0.32,-5.85 0.48,-6.44 4.17,-15.99c2.11,-5.47 3.7,-10.18 3.52,-10.49c-0.38,-0.69 -6.15,-0.71 -7.11,-0.02m16.8,0.22c-0.13,0.43 -1.73,5.26 -3.58,10.79c-3.04,9.15 -3.36,10.55 -3.63,16.09l-0.3,6.07l-4.7,0.18l-4.68,0.16l0,40.39l0,40.37l23.6,0l23.6,0l0,-30.1c0,-19.6 0.2,-30.53 0.55,-31.3c0.7,-1.44 32.43,-1.86 33.68,-0.45c0.48,0.55 0.64,8.34 0.64,31.3l0,30.57l23.74,-0.16l23.74,-0.16l0.13,-40.23l0.14,-40.23l-4.97,-0.16l-4.95,-0.18l-0.16,-5.83c-0.14,-5.55 -0.34,-6.42 -3.77,-16.72l-3.63,-10.85l-3.68,-0.18c-4.68,-0.24 -4.74,-0.16 -3.16,5.65c4.58,16.84 4.52,16.54 4.36,22.37l-0.16,5.57l-4.83,0l-4.83,0l-0.3,-6.38c-0.27,-5.77 -1.16,-10.99 -4.04,-23.54l-0.88,-3.79l-4.02,0l-4.04,0l0.29,2.57c0.16,1.42 0.93,6.76 1.7,11.86c0.97,6.26 1.38,10.93 1.27,14.29l-0.16,4.98l-4.02,0.18c-6.7,0.3 -6.44,0.59 -6.44,-7.09c0,-6.11 -1.3,-24.29 -1.88,-26.07c-0.18,-0.57 -1.34,-0.75 -4.15,-0.61l-3.9,0.18l0,16.7l0,16.7l-3.75,0.18c-2.06,0.1 -4.33,0.02 -5.02,-0.18l-1.3,-0.36l0.39,-16.68l0.39,-16.66l-4.02,0l-4.02,0l-0.32,2.27c-0.89,6.44 -1.93,19.8 -1.93,25.1c0,7 0.18,6.82 -6.17,6.52l-3.75,-0.18l-0.13,-6.38c-0.09,-4.76 0.27,-8.91 1.41,-16.4c1.79,-11.84 2.02,-10.93 -2.82,-10.93l-3.9,0l-2.23,10.77c-1.7,8.18 -2.27,12.25 -2.38,16.86l-0.14,6.07l-4.02,0.18c-6.54,0.3 -6.44,0.38 -6.44,-5.71c0,-4.58 0.34,-6.46 2.95,-15.97c1.63,-5.95 2.95,-11.11 2.95,-11.52c0,-1.01 -7.99,-0.95 -8.31,0.06m104.88,-0.14c0,0.34 1.93,5.59 4.29,11.64c4.24,10.91 4.29,11.09 4.29,16.09l0,5.06l4.56,0l4.56,0l0,-5.77l0,-5.79l-4.83,-10.91l-4.84,-10.93l-4.02,0c-2.36,0 -4,0.24 -4,0.61m-82.09,67.13l0,23.99l-16.36,0l-16.36,0l0,-23.99l0,-24.01l16.36,0l16.36,0l0,24.01m83.7,0l0,23.99l-10.6,0c-11.71,0.02 -13.01,0.2 -13.01,1.88c0,0.63 -0.36,1.15 -0.8,1.15c-0.45,0 -0.8,-0.24 -0.8,-0.51c0,-0.28 -0.61,-0.83 -1.34,-1.21c-1.41,-0.73 -1.77,-0.22 -0.7,0.97c0.93,1.07 0.2,1.52 -1.72,1.05c-0.93,-0.24 -1.56,-0.57 -1.39,-0.75c0.16,-0.18 -0.3,-0.85 -1.04,-1.5l-1.32,-1.19l0,-23.95l0,-23.95l16.36,0l16.37,0l0,24.01m-32.2,27.03c0,0.32 -0.73,0.61 -1.64,0.61c-0.95,0 -1.5,-0.26 -1.3,-0.61c0.18,-0.34 0.93,-0.61 1.64,-0.61c0.72,0 1.3,0.26 1.3,0.61"
            fill="#aea1ea"
            fill-rule="evenodd"
            id="svg_7"
          />
          <path
            d="m266.16,156.64c-1.64,1.05 -1.82,1.7 -1.02,3.89c1.09,2.94 0.88,3.34 -0.36,0.69c-1.3,-2.79 -0.41,-2.94 -8.01,1.38c-5.18,2.96 -6.35,3.85 -6.1,4.7c0.25,0.89 0.2,0.93 -0.27,0.16c-0.84,-1.34 -13.48,5.75 -13.5,7.57c0,1.01 -0.09,1.07 -0.5,0.32c-0.43,-0.75 -1.2,-0.51 -4.97,1.66c-2.43,1.42 -3.81,2.43 -3.04,2.25c1.16,-0.28 1.5,-0.04 2.07,1.52c0.88,2.41 -0.88,2.85 19.5,-4.92c9.78,-3.75 18.82,-7.21 20.08,-7.67c2.63,-1.01 2.63,-0.73 -0.05,-7.87c-1.7,-4.53 -2.02,-4.84 -3.84,-3.66m-71.42,24.13c-3.83,2.63 -4.18,5.14 -1.95,13.44l1.47,5.45l3.06,0c3.54,0 4.4,-1.62 3.07,-5.77c-0.57,-1.76 -0.57,-2.27 0.02,-2.89c0.5,-0.53 0.77,-0.57 0.93,-0.08c1.16,3.54 2.65,3.24 1.79,-0.36c-0.63,-2.71 0.23,-4.88 1.97,-4.88c1.7,0 0.23,-5.14 -1.63,-5.71c-2.52,-0.77 -7.04,-0.34 -8.72,0.81m22.35,3.75c-4.58,2.29 -8.87,4.19 -9.53,4.19c-1.38,0 -1.5,0.53 -0.5,2.09c0.66,1.03 1.2,0.91 9.8,-2.37c10.28,-3.93 10.76,-4.25 9.81,-6.6c-0.79,-1.98 0.27,-2.27 -9.58,2.69m-11.49,81.66c-1.36,2.53 -2.47,4.82 -2.47,5.1c0,1.07 -5.04,6.82 -6.9,7.9c-4.86,2.79 -24.31,3.77 -25.01,1.26c-0.2,-0.67 -0.8,-1.19 -1.38,-1.19c-0.88,0 -1.04,-0.45 -1.04,-2.85c0,-3.28 -0.89,-2.96 -1.18,0.4l-0.16,2.13l-7.11,0.18l-7.1,0.16l0,13.64l0,13.66l14.53,0l14.53,0l-0.39,10.43c-0.3,8.26 -0.59,10.83 -1.34,12.31c-5.85,11.56 -5.85,34.09 -0.02,46.46c0.36,0.75 0.77,2.61 0.89,4.13c0.13,1.52 0.38,3.02 0.52,3.3c0.45,0.81 4.93,0.63 5.18,-0.2c0.16,-0.53 0.52,-0.47 1.36,0.2c1.2,0.93 10.31,-0.24 10.31,-1.34c0,-0.51 -2.77,-1.17 -4.95,-1.17c-1.95,0 -7.92,-2.94 -7.9,-3.89c0,-0.89 1.72,-17.53 3.5,-34.09l1.45,-13.36l3.83,-10.18c2.09,-5.59 3.99,-10.16 4.18,-10.16c0.21,0 1.27,3.2 2.36,7.13l1.97,7.15l-1.11,3.64c-3.59,11.72 -2.99,28.5 1.56,43.34c1.2,3.89 2.47,8.44 2.82,10.12c0.66,3.12 4.5,4.94 5.72,2.71c0.29,-0.55 0.72,-0.49 1.66,0.16c1.13,0.77 1.82,0.77 5.7,-0.02c5.7,-1.17 5.67,-2.53 -0.07,-2.55c-1.14,0 -3.52,-0.75 -5.29,-1.64l-3.22,-1.64l0.3,-3.99c0.41,-5.16 2.22,-23.24 3.58,-35.57c1.89,-17.41 1.97,-18.44 1.54,-22.92c-0.23,-2.43 -0.93,-9.62 -1.54,-15.95c-1.81,-18.42 -3.16,-32.96 -3.31,-35.25c-0.25,-4.23 -3.07,-3.08 -6.02,2.45m-34.34,9.31c0.7,0.77 1.16,0.91 1.43,0.47c0.7,-1.19 0.45,-1.6 -1.02,-1.6c-1.41,0 -1.43,0.02 -0.41,1.13"
            fill="#21529d"
            fill-rule="evenodd"
            id="svg_5"
          />
          <path
            d="m350.38,2.19c-14.86,2.57 -20.95,23.4 -10.53,36.03c8.8,10.65 23.67,8.85 30.26,-3.68c8.44,-15.97 -3.29,-35.18 -19.74,-32.35m222.33,8.99l-1.86,2.27l2.02,-2.09c1.88,-1.94 2.25,-2.47 1.84,-2.47c-0.09,0 -0.98,1.03 -2,2.29m-218.04,0.14c0.2,0.67 0.68,1.21 1.07,1.21c1.54,0 4.09,3.14 3.93,4.8c-0.21,2.09 -2.09,2.47 -2.86,0.59c-0.8,-2.04 -1.68,-2 -2.06,0.12c-0.43,2.43 0.29,3.93 2.29,4.72c4.83,1.9 4.5,9.92 -0.5,12.27c-0.82,0.38 -1.63,1.21 -1.77,1.86c-0.36,1.52 -1.23,1.5 -1.59,-0.04c-0.16,-0.65 -0.97,-1.54 -1.81,-1.96c-2.18,-1.11 -3.38,-2.92 -3.4,-5.12c-0.04,-3.46 1.95,-3.08 3.18,0.61c0.88,2.61 1.89,1.66 1.89,-1.76c0,-2.71 -0.16,-3.08 -1.88,-4.39c-4.31,-3.3 -4.25,-8.6 0.11,-11.13c1.13,-0.65 2.04,-1.58 2.04,-2.06c0,-1.34 0.95,-1.11 1.34,0.3m258.3,-1.01c0,0.1 0.79,0.99 1.75,1.96l1.73,1.78l-1.57,-1.96c-1.47,-1.84 -1.91,-2.27 -1.91,-1.78m-261.16,6.01c-0.84,0.95 -0.79,3.2 0.11,4.03c0.97,0.93 1.41,0.26 1.41,-2.11c0,-2.23 -0.59,-2.98 -1.52,-1.92m240.39,0.3c0.8,0.14 2.02,0.12 2.68,-0.02c0.66,-0.14 -0.02,-0.24 -1.48,-0.24c-1.48,0 -2.02,0.12 -1.2,0.26m-12.01,6.09c-1.79,2.17 -3.99,5.36 -2.81,4.09c1.27,-1.38 5.13,-6.38 4.92,-6.38c-0.13,0 -1.07,1.03 -2.11,2.29m25.81,-0.16c1,1.17 1.95,2.13 2.09,2.13c0.14,0 -0.55,-0.95 -1.56,-2.13c-1,-1.15 -1.95,-2.13 -2.09,-2.13c-0.14,0 0.55,0.97 1.56,2.13m-251.22,4.41c-0.48,0.99 0.32,5 1.02,5c1.22,0 2.02,-2.37 1.36,-4.01c-0.55,-1.4 -1.89,-1.94 -2.38,-0.99m267.45,6.84c0,1.5 0.11,2.11 0.23,1.36c0.14,-0.75 0.14,-1.98 0,-2.73c-0.13,-0.75 -0.23,-0.14 -0.23,1.38m-57.94,0.59c0,1.52 0.11,2.13 0.23,1.38c0.14,-0.75 0.14,-1.98 0,-2.73c-0.13,-0.75 -0.23,-0.14 -0.23,1.36m10.76,3.04c0,2.19 0.11,3.08 0.21,1.98c0.13,-1.09 0.13,-2.85 0,-3.95c-0.11,-1.09 -0.21,-0.2 -0.21,1.96m34.54,8.83c-0.5,1.17 -0.79,2.13 -0.64,2.13c0.36,0 1.98,-3.72 1.75,-4.01c-0.13,-0.12 -0.63,0.71 -1.11,1.88m-255.53,14.27c0,3.18 0.09,4.47 0.2,2.87c0.13,-1.58 0.13,-4.17 0,-5.77c-0.11,-1.58 -0.2,-0.28 -0.2,2.89m9.06,-0.61c0,1.17 0.11,1.64 0.23,1.05c0.14,-0.59 0.14,-1.54 0,-2.13c-0.13,-0.59 -0.23,-0.1 -0.23,1.07m-27.91,2.43c0,1.17 0.11,1.64 0.25,1.05c0.13,-0.59 0.13,-1.54 0,-2.13c-0.14,-0.59 -0.25,-0.1 -0.25,1.07m9.21,7.29c0,4.17 0.09,5.89 0.2,3.79c0.09,-2.09 0.09,-5.49 0,-7.59c-0.11,-2.09 -0.2,-0.36 -0.2,3.81m19.22,-3.64c0,1.17 0.13,1.64 0.25,1.05c0.14,-0.57 0.14,-1.54 0,-2.13c-0.13,-0.57 -0.25,-0.1 -0.25,1.07m-49.27,11.54c0,3.18 0.09,4.47 0.2,2.89c0.11,-1.6 0.11,-4.19 0,-5.79c-0.11,-1.58 -0.2,-0.28 -0.2,2.89m-10.21,0.3c0,3 0.09,4.31 0.21,2.89c0.11,-1.4 0.11,-3.87 0,-5.47c-0.11,-1.58 -0.2,-0.45 -0.21,2.57m70.27,0c0,3 0.09,4.31 0.21,2.89c0.11,-1.4 0.11,-3.87 0,-5.47c-0.11,-1.58 -0.21,-0.45 -0.21,2.57m-100.36,3.04c0,1.34 0.11,1.82 0.23,1.05c0.14,-0.75 0.13,-1.84 0,-2.43c-0.14,-0.57 -0.23,0.04 -0.23,1.38m70.34,1.52c0.05,1.5 0.13,1.52 4.76,1.56l4.7,0.04l-4.54,-0.22c-4.17,-0.18 -4.54,-0.3 -4.74,-1.56c-0.2,-1.11 -0.21,-1.09 -0.18,0.18m-19.7,1.38c0.13,0.24 2.27,0.45 4.74,0.45c2.47,0 4.61,-0.2 4.74,-0.45c0.14,-0.26 -1.98,-0.47 -4.74,-0.47c-2.75,0 -4.88,0.2 -4.74,0.47m79.93,0c0.13,0.24 2.4,0.45 5.01,0.45c2.63,0 4.88,-0.2 5.02,-0.45c0.13,-0.26 -2.13,-0.47 -5.02,-0.47c-2.9,0 -5.15,0.2 -5.01,0.47m-120.27,0.61c-0.66,1.94 0.04,80.83 0.72,81c0.38,0.08 0.43,0.02 0.13,-0.16c-0.36,-0.2 -0.55,-13.69 -0.55,-40.63l0,-40.33l4.97,-0.2l4.97,-0.18l-4.99,-0.14c-3.58,-0.08 -5.04,0.1 -5.24,0.65m22.42,-0.32c1.41,0.12 3.7,0.12 5.09,0c1.41,-0.12 0.27,-0.22 -2.54,-0.22c-2.81,0 -3.95,0.1 -2.56,0.22m60.08,0c1.39,0.12 3.7,0.12 5.09,0c1.41,-0.12 0.25,-0.22 -2.54,-0.22c-2.81,0 -3.95,0.1 -2.56,0.22m20.13,0c1.57,0.12 3.99,0.12 5.38,0c1.38,-0.12 0.11,-0.22 -2.84,-0.22c-2.95,0 -4.09,0.1 -2.54,0.22m-6.44,9.72c1.56,0.12 3.97,0.12 5.36,0c1.39,-0.12 0.13,-0.22 -2.82,-0.22c-2.95,0 -4.09,0.1 -2.54,0.22m-309.57,5.93c-19.83,6.17 -26.49,33.3 -12.17,49.52c13.76,15.61 35.52,10.37 42.96,-10.34c7.72,-21.48 -11.03,-45.33 -30.78,-39.17m514.65,3.04c0,0.34 0.34,1.3 0.77,2.13c0.41,0.85 0.77,1.26 0.77,0.91c0,-0.32 -0.36,-1.28 -0.77,-2.13c-0.43,-0.83 -0.77,-1.23 -0.77,-0.91m-219.33,31.4c-0.05,16.94 0.07,30.93 0.29,31.1c0.38,0.24 0.36,-22.9 -0.02,-50.93c-0.07,-6.03 -0.2,2.92 -0.27,19.84m221.47,-25.93c0,0.34 0.46,1.58 1.04,2.73c0.55,1.17 1.02,1.86 1.02,1.52c0,-0.32 -0.46,-1.56 -1.02,-2.73c-0.57,-1.15 -1.04,-1.84 -1.04,-1.52m9.44,3.08c-1.25,3 -1.07,3.5 0.23,0.67c0.61,-1.28 1,-2.45 0.88,-2.57c-0.11,-0.14 -0.61,0.73 -1.11,1.9m-518.54,-0.02c0,1.26 0.45,1.78 2.34,2.69c4.84,2.35 6.78,10.18 2.18,8.89c-0.72,-0.2 -1.3,-0.75 -1.3,-1.19c0,-1.52 -2.25,-4.21 -2.75,-3.3c-1.64,2.92 -0.23,7.87 2.59,9.17c6.97,3.16 6.24,15.1 -1.04,17.17c-1.14,0.3 -1.54,0.87 -1.81,2.49c-0.46,2.75 -2.02,2.59 -2.27,-0.24c-0.13,-1.56 -0.46,-2.04 -1.61,-2.35c-3.52,-0.97 -6.2,-4.76 -5.9,-8.32c0.3,-3.46 3.75,-2.85 4.45,0.79c0.36,1.78 2.2,4.13 2.75,3.48c0.27,-0.3 0.41,-5.02 0.25,-8.42c-0.02,-0.55 -1.11,-1.56 -2.47,-2.29c-3.02,-1.6 -4.54,-4.27 -4.54,-7.94c0,-4.47 1.5,-6.5 5.97,-8.12c0.5,-0.16 1.05,-1.15 1.25,-2.19c0.45,-2.27 1.89,-2.51 1.89,-0.32m480.09,2.29c-16.55,7.27 -15.14,34.96 2.07,40.87c18.48,6.36 32.05,-19.17 18.95,-35.67c-5.02,-6.32 -13.64,-8.46 -21.02,-5.2m-484.06,5.2c-1.61,2.02 -0.86,6.17 1.13,6.17c0.48,0 0.7,-1.01 0.7,-3.32c0,-3.68 -0.52,-4.47 -1.82,-2.85m492.64,2.81c0,0.45 0.91,1.32 2,1.94c1.45,0.79 2.15,1.66 2.52,3.14c0.8,3.28 -1.86,4.11 -2.93,0.91c-0.8,-2.37 -1.59,-1.6 -1.59,1.58c0,2.57 0.18,3.04 1.22,3.4c5.13,1.76 5.72,10.18 0.86,12.45c-0.89,0.43 -1.86,1.48 -2.15,2.35l-0.54,1.58l-0.66,-1.38c-0.36,-0.75 -1.48,-1.86 -2.5,-2.49c-2.02,-1.19 -3.95,-4.8 -3.41,-6.38c0.57,-1.7 2.11,-1.11 3.06,1.13c1.36,3.22 2.52,2.79 2.52,-0.89c0,-2.73 -0.14,-3.12 -1.56,-3.95c-4.93,-2.89 -4.83,-10.69 0.16,-12.11c0.7,-0.2 1.41,-0.93 1.57,-1.64c0.3,-1.36 1.43,-1.07 1.43,0.34m-3.4,4.98c-0.7,0.79 -0.34,3.7 0.5,4.07c1.29,0.57 1.29,0.55 1.29,-2.04c0,-2.31 -0.77,-3.18 -1.79,-2.02m-485.06,6.48c-0.3,0.93 0.09,7.02 0.5,7.49c0.57,0.65 2.41,-1.09 2.93,-2.75c0.91,-3 -2.45,-7.61 -3.43,-4.74m488.46,6.48c0,3.26 0.39,3.68 1.81,1.92c1.14,-1.44 1.13,-2.71 -0.09,-3.97c-1.5,-1.52 -1.72,-1.26 -1.72,2.04m-192.03,1.36c0,0.89 0.45,1.05 2.81,0.97l2.82,-0.12l-2.41,-0.24c-1.32,-0.12 -2.57,-0.55 -2.81,-0.95c-0.27,-0.47 -0.39,-0.36 -0.41,0.34m38.81,18.69c0,2.83 0.09,4.01 0.2,2.59c0.13,-1.44 0.13,-3.75 0,-5.16c-0.11,-1.44 -0.2,-0.26 -0.2,2.57m86.31,-0.18c0.52,0.14 1.36,0.14 1.88,0c0.52,-0.16 0.09,-0.28 -0.93,-0.28c-1.04,0 -1.47,0.12 -0.95,0.28m49.34,3.83c0,1.17 0.11,1.66 0.25,1.07c0.13,-0.59 0.13,-1.56 0,-2.13c-0.14,-0.59 -0.25,-0.12 -0.25,1.05m-178.35,2.25c0.66,0.14 1.75,0.14 2.41,0c0.66,-0.14 0.13,-0.26 -1.2,-0.26c-1.34,0 -1.88,0.12 -1.22,0.26m22.81,0.04c3.75,0.1 9.9,0.1 13.68,0c3.75,-0.12 0.68,-0.2 -6.85,-0.2c-7.53,0 -10.6,0.08 -6.83,0.2m164.18,6.82c0,2.17 0.09,3.06 0.21,1.98c0.13,-1.09 0.13,-2.87 0,-3.95c-0.13,-1.09 -0.21,-0.2 -0.21,1.96m-545.32,-1.98c0.95,0.12 2.63,0.14 3.74,0c1.13,-0.12 0.34,-0.24 -1.72,-0.24c-2.07,0 -2.99,0.1 -2.02,0.24m17.16,0c0.97,0.14 2.54,0.14 3.49,0c0.97,-0.14 0.18,-0.24 -1.73,-0.24c-1.91,0 -2.7,0.1 -1.75,0.24m19.83,0c2.36,0.14 3.93,0.51 4.08,0.95c0.11,0.4 0.2,0.32 0.16,-0.18c-0.05,-0.71 -0.91,-0.91 -4.08,-0.95l-4.02,-0.04l3.86,0.22m13.39,0.02c-0.14,0.24 1,0.36 2.52,0.26c4.58,-0.28 5.13,-0.55 1.32,-0.65c-1.98,-0.04 -3.7,0.12 -3.84,0.38m36.79,-0.02c1.11,0.14 2.93,0.14 4.02,0c1.11,-0.12 0.21,-0.24 -2,-0.24c-2.22,0 -3.11,0.12 -2.02,0.24m17.18,0c1.11,0.14 2.91,0.14 4.02,0c1.11,-0.12 0.2,-0.24 -2.02,-0.24c-2.22,0 -3.11,0.12 -2,0.24m15.77,-0.04c-0.2,0.22 -0.36,0.71 -0.34,1.07c0,0.4 0.16,0.38 0.41,-0.08c0.23,-0.4 2.02,-0.81 4.15,-0.95l3.74,-0.2l-3.79,-0.12c-2.09,-0.06 -3.97,0.06 -4.17,0.28m434.85,5.67c0,1.84 0.11,2.59 0.23,1.68c0.13,-0.93 0.13,-2.43 0,-3.34c-0.13,-0.93 -0.23,-0.18 -0.23,1.66m-496.72,6.98c0,2.35 0.11,3.22 0.21,1.96c0.13,-1.26 0.13,-3.18 0,-4.25c-0.11,-1.07 -0.21,-0.04 -0.21,2.29m-56.42,-1.17c-0.89,2.23 -0.72,2.71 0.25,0.67c0.46,-0.95 0.73,-1.84 0.61,-1.96c-0.13,-0.14 -0.5,0.45 -0.86,1.3m212.95,2.63l-0.11,3.56l1.97,0.26c1.88,0.26 1.93,0.22 0.91,-0.71c-0.79,-0.71 -0.95,-1.32 -0.64,-2.27c0.48,-1.44 -0.48,-4.41 -1.43,-4.43c-0.34,0 -0.63,1.5 -0.7,3.58m290.35,2.19c0,3.34 0.09,4.64 0.2,2.87c0.11,-1.76 0.11,-4.49 0,-6.07c-0.11,-1.58 -0.2,-0.14 -0.2,3.2m19.84,-0.3c0,3.18 0.09,4.47 0.2,2.89c0.11,-1.6 0.11,-4.19 0,-5.77c-0.11,-1.6 -0.2,-0.28 -0.2,2.87m40.22,0.3c0.02,3.34 0.11,4.64 0.21,2.87c0.11,-1.76 0.11,-4.49 0,-6.07c-0.13,-1.58 -0.21,-0.14 -0.21,3.2m30.05,0c0,3.34 0.09,4.64 0.2,2.87c0.11,-1.76 0.11,-4.49 0,-6.07c-0.11,-1.58 -0.2,-0.14 -0.2,3.2m-120.17,0c0,3.02 0.09,4.31 0.2,2.92c0.11,-1.42 0.13,-3.87 0,-5.47c-0.11,-1.6 -0.2,-0.45 -0.2,2.55m60.07,-0.61c0,2.67 0.11,3.7 0.21,2.27c0.11,-1.44 0.11,-3.62 0,-4.86c-0.13,-1.23 -0.21,-0.08 -0.21,2.59m90.13,0.61c0,3.02 0.09,4.31 0.2,2.92c0.13,-1.42 0.13,-3.87 0.02,-5.47c-0.13,-1.6 -0.21,-0.45 -0.21,2.55m-557.41,0.61c0.02,1.34 0.13,1.82 0.25,1.07c0.13,-0.77 0.13,-1.86 -0.02,-2.45c-0.13,-0.57 -0.23,0.04 -0.23,1.38m9.65,0.3c0,1.17 0.11,1.66 0.23,1.07c0.14,-0.59 0.14,-1.54 0,-2.13c-0.13,-0.59 -0.23,-0.1 -0.23,1.05m113.05,1.78c0,1.03 0.25,1.86 0.54,1.86c0.3,0 0.54,0.57 0.54,1.26c0,0.69 -0.23,1.09 -0.52,0.89c-0.3,-0.22 -0.39,0.02 -0.21,0.57c0.2,0.59 0.02,0.93 -0.48,0.93c-0.45,0 -0.97,0.71 -1.14,1.56c-0.2,0.85 -0.59,1.38 -0.88,1.17c-0.29,-0.2 -0.52,0.18 -0.52,0.85c0,0.67 -0.25,1.4 -0.55,1.6c-0.39,0.28 -0.38,0.67 0.07,1.26c1.05,1.46 2.02,0.97 2.2,-1.11c0.13,-1.52 0.45,-2.02 1.38,-2.17c0.66,-0.1 1.2,-0.61 1.2,-1.09c0,-0.49 0.36,-1.68 0.8,-2.65c0.52,-1.13 0.59,-1.82 0.23,-1.94c-0.32,-0.12 -0.75,-1.15 -0.95,-2.29c-0.5,-2.71 -1.7,-3.2 -1.7,-0.69m-172.56,5.83c0,2 0.11,2.73 0.23,1.64c0.11,-1.07 0.11,-2.71 -0.02,-3.64c-0.13,-0.91 -0.21,-0.02 -0.21,2m19.93,2.57l0.02,5.93l5.09,0l5.09,0l0.04,-5.93l0.04,-5.93l-0.2,5.77l-0.18,5.79l-4.79,0l-4.79,0l-0.18,-5.79l-0.18,-5.77l0.04,5.93m40.22,0l0.04,5.93l5.09,0.02l5.09,0.04l-4.95,-0.2l-4.93,-0.22l-0.18,-5.75l-0.2,-5.75l0.04,5.93m29.91,-0.32l-0.11,5.89l-4.95,0.2l-4.97,0.2l4.99,0.12c5.85,0.16 5.58,0.51 5.35,-6.9l-0.18,-5.43l-0.13,5.91m507.18,-5.2c-0.2,0.22 -0.36,18.69 -0.36,41.01l0,40.59l-23.58,0l-23.6,0l-0.16,-7.59l-0.18,-7.59l0.02,7.75l0.04,7.73l23.87,0l23.87,0l0.27,-41.16c0.14,-22.63 0.25,-41.16 0.23,-41.16c-0.04,0 -0.21,0.18 -0.41,0.4m-477.05,5.67c0,3.18 0.09,4.47 0.21,2.89c0.11,-1.58 0.11,-4.19 0,-5.77c-0.13,-1.58 -0.21,-0.28 -0.21,2.87m347.13,-4.7c-0.14,0.43 -0.2,18.81 -0.11,40.85l0.13,40.08l23.88,0l23.87,0l0.02,-31.14l0,-31.12l-0.14,30.97l-0.16,30.97l-23.6,0l-23.6,0l0.13,-40.69c0.09,-22.39 0.09,-40.71 0,-40.71c-0.09,0 -0.27,0.34 -0.41,0.77m123.13,33.26l0,23.69l-10.33,0.12c-5.67,0.06 -12.85,0.12 -15.95,0.12c-5.56,0.02 -5.65,0.04 -7.22,1.86c-1.72,1.98 -0.97,2.94 1.25,1.58c0.73,-0.45 1.52,-0.45 2.48,-0.04c1.98,0.85 2.95,0.75 2.95,-0.3c0,-1.03 0.84,-1.21 1.34,-0.3c0.55,1.03 1.88,0.67 1.88,-0.53c0,-1.56 2.68,-1.9 14.55,-1.9l9.58,0l0,-23.99c0,-13.2 -0.13,-23.99 -0.27,-23.99c-0.14,0 -0.27,10.65 -0.27,23.69m-614.88,-22.65l4.42,0.22l0.14,40.53l0.14,40.53l0.27,-40.79l0.27,-40.77l-4.83,0.04l-4.83,0.04l4.42,0.2m28.44,0.02c1.27,0.12 3.2,0.12 4.29,-0.02c1.11,-0.12 0.07,-0.22 -2.29,-0.22c-2.36,0 -3.25,0.1 -2,0.24m38.63,0c1.56,0.12 3.97,0.12 5.36,0c1.39,-0.14 0.13,-0.24 -2.84,-0.24c-2.95,0.02 -4.08,0.12 -2.52,0.24m59.81,0c1.41,0.12 3.58,0.12 4.83,0c1.23,-0.14 0.09,-0.24 -2.57,-0.24c-2.65,0 -3.66,0.1 -2.25,0.24m7.6,0.3c-0.14,0.43 -0.2,18.81 -0.11,40.85l0.14,40.1l0.13,-40.53l0.13,-40.53l4.7,-0.2l4.7,-0.2l-4.72,-0.12c-3.36,-0.1 -4.79,0.08 -4.97,0.63m396.97,22.33c0,12.86 0.07,18.12 0.14,11.68c0.09,-6.42 0.09,-16.94 0,-23.38c-0.07,-6.42 -0.14,-1.17 -0.14,11.7m-343.69,-20.83c0.95,0.14 2.52,0.14 3.49,0c0.95,-0.12 0.18,-0.24 -1.75,-0.24c-1.91,0 -2.7,0.12 -1.73,0.24m-60.07,32.37c-0.09,13.04 0.04,23.69 0.25,23.69c0.21,0 0.39,-10.65 0.39,-23.69c0,-13.04 -0.11,-23.69 -0.25,-23.69c-0.14,0 -0.32,10.65 -0.39,23.69m-75.28,7.9c0,12.86 0.07,18.12 0.16,11.7c0.09,-6.44 0.09,-16.96 0,-23.4c-0.09,-6.42 -0.16,-1.15 -0.16,11.7m175.58,-22.05c0.66,0.14 1.63,0.14 2.15,-0.02c0.5,-0.14 -0.04,-0.26 -1.22,-0.26c-1.18,0.02 -1.61,0.14 -0.93,0.28m-9.13,0.61c0.68,0.14 1.64,0.14 2.15,-0.02c0.52,-0.14 -0.02,-0.26 -1.2,-0.26c-1.18,0.02 -1.61,0.14 -0.95,0.28m-132.16,6.86c0,3.85 0.09,5.41 0.2,3.48c0.11,-1.92 0.11,-5.06 0,-6.98c-0.11,-1.9 -0.2,-0.34 -0.2,3.5m346.21,-3.04c-19.99,5.75 -27.03,33.54 -12.66,49.84c16.55,18.75 44.49,5.57 44.51,-20.99c0,-18.62 -16.23,-33.34 -31.86,-28.85m-270.65,12.45c0.02,1.34 0.13,1.82 0.25,1.05c0.13,-0.75 0.13,-1.84 -0.02,-2.43c-0.13,-0.59 -0.23,0.04 -0.23,1.38m277.98,-0.43c0.25,1.26 0.84,1.92 2.18,2.47c3.72,1.52 6.04,6.21 4.06,8.24c-1.14,1.17 -3.25,0.45 -3.25,-1.13c0,-1.86 -1.95,-3.72 -2.54,-2.43c-0.43,0.95 -0.55,4.94 -0.21,7.13c0.04,0.26 1.09,0.97 2.34,1.6c7.19,3.52 6.69,15.61 -0.7,17.27c-1.09,0.24 -1.57,0.73 -1.57,1.54c0,3.46 -1.84,4.25 -2.38,1.03c-0.27,-1.68 -0.7,-2.23 -2.07,-2.75c-3.7,-1.4 -6.27,-5.51 -5.52,-8.87c0.72,-3.22 3,-2.41 4.4,1.52c1.5,4.29 2.72,4.15 3.02,-0.36c0.38,-5.28 0.2,-5.83 -2.54,-7.11c-6.4,-3 -5.76,-13.34 0.98,-15.93c1.25,-0.51 1.73,-1.09 1.86,-2.29c0.23,-2.15 1.54,-2.09 1.95,0.08m-4.18,7.31c-1.11,1.4 -1.14,3.99 -0.04,5.22c1.52,1.72 2.38,0.77 2.38,-2.69c0,-3.52 -0.84,-4.41 -2.34,-2.53m-274.32,3.14c0,1.5 0.11,2.13 0.23,1.38c0.13,-0.77 0.13,-1.98 0,-2.73c-0.13,-0.77 -0.23,-0.14 -0.23,1.36m345.18,-0.14c4.5,0.1 11.87,0.1 16.36,0c4.5,-0.1 0.82,-0.2 -8.17,-0.2c-9.01,0 -12.67,0.1 -8.19,0.2m-345.7,11.38c0,2 0.11,2.75 0.23,1.66c0.11,-1.09 0.11,-2.73 -0.02,-3.64c-0.13,-0.91 -0.21,-0.02 -0.21,1.98m-118.15,-0.32c-0.63,0.45 -0.64,0.71 -0.09,1.48c0.38,0.51 0.54,1.21 0.34,1.56c-0.23,0.4 0.63,0.63 2.36,0.63c2.36,0 2.72,-0.16 2.72,-1.21c0,-1.42 -1.34,-1.64 -1.81,-0.3c-0.16,0.51 -0.72,0.91 -1.22,0.91c-0.8,0 -0.79,-0.12 0.13,-1.3c1.02,-1.28 1.02,-1.3 -0.14,-0.87c-0.8,0.28 -1.22,0.12 -1.34,-0.53c-0.13,-0.63 -0.41,-0.75 -0.95,-0.36m397.47,3.66c0,4.53 0.16,4.8 2.02,3.32c1.54,-1.21 1.66,-5.08 0.21,-6.56c-1.82,-1.86 -2.23,-1.26 -2.23,3.24m-388.17,12.15c0,4.19 0.09,5.89 0.18,3.81c0.11,-2.09 0.11,-5.51 0,-7.59c-0.09,-2.09 -0.18,-0.38 -0.18,3.79m108.69,-6.05c0,0.67 0.36,1.19 0.8,1.19c0.45,0 0.8,-0.36 0.8,-0.83c0,-0.47 -0.36,-1.01 -0.8,-1.19c-0.55,-0.24 -0.8,0.02 -0.8,0.83m282.34,34.31c0,2.33 0.09,3.22 0.21,1.96c0.11,-1.28 0.11,-3.18 -0.02,-4.25c-0.11,-1.09 -0.2,-0.06 -0.2,2.29m-9.62,11.24c0,5.18 0.07,7.29 0.18,4.72c0.09,-2.59 0.09,-6.84 0,-9.43c-0.11,-2.57 -0.18,-0.47 -0.18,4.72m19.83,2.43c0,3.85 0.09,5.41 0.2,3.5c0.11,-1.92 0.11,-5.08 0,-7c-0.11,-1.9 -0.2,-0.34 -0.2,3.5m-60.08,0.91c0,3.34 0.09,4.64 0.2,2.85c0.11,-1.76 0.11,-4.49 0,-6.07c-0.11,-1.56 -0.2,-0.12 -0.2,3.22m10.1,-0.18l-0.11,5.91l-4.68,0.2l-4.7,0.2l4.72,0.12c5.54,0.14 5.31,0.47 5.08,-6.9l-0.18,-5.43l-0.13,5.89m60.08,0l-0.11,5.91l-4.68,0.2l-4.7,0.2l4.7,0.12c5.56,0.14 5.33,0.47 5.08,-6.9l-0.18,-5.43l-0.11,5.89m49.98,-0.12c0,3.18 0.09,4.47 0.2,2.89c0.11,-1.6 0.11,-4.19 0,-5.77c-0.11,-1.6 -0.2,-0.3 -0.2,2.87m-19.81,0.91l0.04,5.47l4.68,0.04l4.7,0.04l-4.54,-0.22l-4.54,-0.2l-0.2,-5.3l-0.18,-5.28l0.04,5.47m10.14,-0.3c0,3.18 0.09,4.47 0.21,2.87c0.11,-1.58 0.11,-4.17 0,-5.77c-0.13,-1.58 -0.21,-0.28 -0.21,2.89m-65.09,5.47l-4.56,0.38l4.38,0.1c2.47,0.08 4.54,-0.14 4.74,-0.49c0.18,-0.32 0.25,-0.55 0.16,-0.49c-0.09,0.06 -2.22,0.28 -4.72,0.49m39.95,0l-4.83,0.38l4.67,0.1c2.65,0.08 4.81,-0.14 4.99,-0.49c0.18,-0.32 0.27,-0.55 0.18,-0.49c-0.11,0.06 -2.34,0.28 -5.01,0.49m-105.15,0.77c-0.14,0.4 -0.2,18.79 -0.13,40.85l0.14,40.08l0.13,-40.53l0.14,-40.53l4.68,-0.2l4.7,-0.2l-4.72,-0.12c-3.36,-0.08 -4.77,0.1 -4.95,0.65m42.53,-0.32c1.25,0.12 3.31,0.12 4.56,0c1.25,-0.12 0.23,-0.22 -2.29,-0.22c-2.5,0 -3.52,0.1 -2.27,0.22m14.25,18.85c4.67,0.1 12.14,0.1 16.63,0c4.49,-0.1 0.66,-0.18 -8.47,-0.18c-9.15,0 -12.82,0.08 -8.15,0.18m25.3,31.44c0,17.03 0.07,24.09 0.14,15.69c0.09,-8.42 0.09,-22.37 0,-30.99c-0.07,-8.62 -0.14,-1.74 -0.14,15.3m-34.45,0.14l-0.14,30.51l-22.92,0.18l-22.94,0.16l22.95,0.14c17.95,0.1 22.99,-0.02 23.2,-0.61c0.14,-0.43 0.18,-14.29 0.11,-30.83l-0.14,-30.08l-0.13,30.53m43.39,6.34c-0.04,0.57 0.52,1.56 1.25,2.21c0.73,0.65 1.2,1.32 1.04,1.5c-0.16,0.18 0.46,0.51 1.39,0.75c1.91,0.47 2.65,0.02 1.72,-1.05c-1.07,-1.19 -0.72,-1.7 0.7,-0.97c0.73,0.38 1.34,0.93 1.34,1.21c0,0.26 0.36,0.51 0.8,0.51c0.45,0 0.8,-0.55 0.8,-1.21c0,-1.52 -0.75,-1.32 6.44,-1.84c4.58,-0.32 3.45,-0.38 -4.38,-0.18c-9.85,0.26 -10.57,0.2 -10.8,-0.83c-0.21,-0.93 -0.27,-0.95 -0.3,-0.08m-83.75,0.65c0,0.26 6.81,0.4 15.16,0.32c15.25,-0.12 13.51,-0.32 -5.11,-0.63c-5.52,-0.08 -10.05,0.06 -10.05,0.3m81.27,3.5c-0.2,0.34 0.36,0.61 1.3,0.61c0.91,0 1.64,-0.28 1.64,-0.61c0,-0.34 -0.59,-0.61 -1.3,-0.61c-0.72,0 -1.47,0.26 -1.64,0.61m17.7,20.04l-23.6,0.32l23.44,0.14c15.18,0.1 23.56,-0.08 23.78,-0.47c0.18,-0.32 0.25,-0.55 0.16,-0.47c-0.09,0.08 -10.8,0.28 -23.78,0.47"
            fill="#f3c83b"
            fill-rule="evenodd"
            id="svg_4"
          />
          <path
            d="m353.33,11.02c0,0.49 -0.91,1.42 -2.04,2.06c-4.36,2.53 -4.42,7.83 -0.11,11.13c1.72,1.32 1.88,1.68 1.88,4.39c0,3.42 -1.02,4.37 -1.89,1.76c-1.23,-3.68 -3.22,-4.07 -3.18,-0.61c0.02,2.21 1.22,4.01 3.4,5.12c0.84,0.43 1.64,1.32 1.81,1.96c0.36,1.54 1.23,1.56 1.59,0.04c0.14,-0.65 0.95,-1.48 1.77,-1.86c5.01,-2.35 5.33,-10.37 0.5,-12.27c-2,-0.79 -2.72,-2.29 -2.29,-4.72c0.38,-2.13 1.25,-2.17 2.06,-0.12c0.77,1.88 2.65,1.5 2.86,-0.59c0.16,-1.66 -2.4,-4.8 -3.93,-4.8c-0.39,0 -0.88,-0.55 -1.07,-1.21c-0.39,-1.42 -1.34,-1.64 -1.34,-0.3m0,7.23c0,2.37 -0.45,3.04 -1.41,2.11c-0.89,-0.83 -0.95,-3.08 -0.11,-4.03c0.93,-1.05 1.52,-0.3 1.52,1.92m234.04,-0.26c-12.53,5.1 -16.12,23.5 -6.61,33.95c11.19,12.29 29.57,4.21 30.5,-13.42c0.77,-14.6 -11.83,-25.45 -23.88,-20.53m-230.21,9.98c0.66,1.64 -0.14,4.01 -1.36,4.01c-0.7,0 -1.5,-4.01 -1.02,-5c0.48,-0.95 1.82,-0.4 2.38,0.99m-65.54,26.34c-6.42,15.39 -8.37,22.82 -7.28,27.75c0.36,1.6 0.38,1.6 5.04,1.44l4.68,-0.18l0.29,-6.38c0.21,-4.86 0.63,-7.33 1.66,-10.32c2.02,-5.75 4.58,-13.46 4.99,-15.04c0.36,-1.34 0.27,-1.36 -3.65,-1.36l-4.02,0l-1.72,4.09m18.81,-3.85c0,0.14 -1.32,5.2 -2.95,11.24c-2.65,9.84 -2.95,11.58 -2.95,16.46l0,5.47l4.83,0l4.83,0l0,-5.47c0,-4.29 0.46,-7.65 2.15,-15.57c2.84,-13.4 3,-12.37 -1.88,-12.37c-2.22,0 -4.02,0.1 -4.02,0.24m17.5,0.81c-0.14,0.59 -0.63,3.26 -1.07,5.93c-1.84,11.07 -2.52,17.27 -2.38,21.56l0.16,4.55l4.61,0.18l4.61,0.16l0.34,-8.36c0.2,-4.62 0.7,-11.66 1.14,-15.67c1.13,-10.45 1.47,-9.41 -3.16,-9.41c-3.34,0 -4.02,0.16 -4.25,1.05m17.18,4.49c-0.2,3.06 -0.36,10.59 -0.36,16.74l0,11.15l4.7,-0.16l4.68,-0.18l-0.14,-14.58c-0.07,-8.02 -0.27,-15.47 -0.43,-16.56l-0.27,-1.96l-3.91,0l-3.93,0l-0.34,5.55m17.57,-3.28c0.91,6.44 1.91,19.41 1.91,24.92l0.02,6.21l4.83,0l4.83,0l0,-5.63c0,-3.28 -0.57,-9.25 -1.38,-14.41c-0.75,-4.84 -1.5,-9.84 -1.68,-11.09l-0.3,-2.27l-4.27,0l-4.27,0l0.32,2.27m17.48,-1.72c0,0.65 2.86,14.49 4.04,19.54c0.43,1.86 0.79,5.61 0.79,8.36l0,4.96l4.56,0l4.56,0l0,-5.97c0,-3.48 -0.32,-7.09 -0.77,-8.64c-0.41,-1.48 -1.52,-5.57 -2.45,-9.07c-2.82,-10.63 -2.18,-9.72 -6.78,-9.72c-2.18,0 -3.95,0.24 -3.95,0.55m17.7,0.3c0,0.47 1.5,5.32 3.33,10.79c3.09,9.23 3.34,10.32 3.54,15.87l0.21,5.93l4.63,-0.16l4.65,-0.18l-0.02,-5.77l-0.02,-5.77l-4.27,-10.77l-4.27,-10.77l-3.88,-0.02c-3,0 -3.9,0.18 -3.9,0.85m16.77,75.83l-0.14,38.73l-13,0.08c-12.32,0.1 -12.67,0.12 -6.58,0.63c35.06,2.89 47.5,3.95 61.69,5.3c7.08,0.67 16.98,1.52 21.99,1.9c5.02,0.36 9.8,0.91 10.6,1.21c1.66,0.61 1.61,0.67 6.08,-9.8l2.22,-5.2l-11.58,-0.75c-6.38,-0.38 -17.75,-1.11 -25.28,-1.62c-12.37,-0.79 -44.1,-2.69 -45.16,-2.69c-0.23,0 -0.5,-14.96 -0.57,-33.26l-0.14,-33.26l-0.13,38.73m-81.86,-23.44c-0.2,0.22 -0.36,14.31 -0.36,31.3l0,30.87l16.89,0l16.91,0l0,-31.28l0,-31.3l-16.55,0c-9.1,0 -16.7,0.18 -16.89,0.4m-255.97,8.14c-0.2,1.03 -0.75,2.02 -1.25,2.19c-4.47,1.62 -5.97,3.64 -5.97,8.12c0,3.66 1.52,6.34 4.54,7.94c1.36,0.73 2.45,1.74 2.47,2.29c0.16,3.4 0.02,8.12 -0.25,8.42c-0.55,0.65 -2.4,-1.7 -2.75,-3.48c-0.7,-3.64 -4.15,-4.25 -4.45,-0.79c-0.3,3.56 2.38,7.35 5.9,8.32c1.14,0.3 1.48,0.79 1.61,2.35c0.25,2.83 1.81,3 2.27,0.24c0.27,-1.62 0.66,-2.19 1.81,-2.49c7.28,-2.06 8.01,-14.01 1.04,-17.17c-2.82,-1.3 -4.24,-6.26 -2.59,-9.17c0.5,-0.91 2.75,1.78 2.75,3.3c0,0.45 0.59,0.99 1.3,1.19c4.59,1.3 2.66,-6.54 -2.18,-8.89c-1.89,-0.91 -2.34,-1.44 -2.34,-2.69c0,-2.19 -1.45,-1.94 -1.89,0.32m-0.25,10.02c0,2.31 -0.21,3.32 -0.7,3.32c-1.98,0 -2.74,-4.15 -1.13,-6.17c1.3,-1.62 1.82,-0.83 1.82,2.85m489.39,-0.38c-0.16,0.71 -0.88,1.44 -1.57,1.64c-4.99,1.42 -5.09,9.21 -0.16,12.11c1.41,0.83 1.56,1.21 1.56,3.95c0,3.68 -1.16,4.11 -2.52,0.89c-0.95,-2.25 -2.48,-2.83 -3.06,-1.13c-0.54,1.58 1.39,5.18 3.41,6.38c1.02,0.63 2.15,1.74 2.5,2.49l0.66,1.38l0.54,-1.58c0.29,-0.87 1.25,-1.92 2.15,-2.35c4.86,-2.27 4.27,-10.69 -0.86,-12.45c-1.04,-0.36 -1.22,-0.83 -1.22,-3.4c0,-3.18 0.79,-3.95 1.59,-1.58c1.07,3.2 3.74,2.37 2.93,-0.91c-0.38,-1.48 -1.07,-2.35 -2.52,-3.14c-1.09,-0.63 -2,-1.5 -2,-1.94c0,-1.42 -1.13,-1.7 -1.43,-0.34m19.24,3.72c-1,0.47 -1.16,0.83 -0.8,1.94c0.25,0.75 0.45,3.99 0.45,7.17l0,5.81l2.15,-1.62c1.18,-0.89 3.11,-2.29 4.29,-3.14c1.18,-0.83 4.2,-3.02 6.7,-4.86c2.5,-1.82 5.17,-3.7 5.9,-4.17c2.23,-1.42 -15.68,-2.49 -18.68,-1.13m-19.41,3.62c0,2.59 0,2.61 -1.29,2.04c-0.84,-0.36 -1.2,-3.28 -0.5,-4.07c1.02,-1.15 1.79,-0.28 1.79,2.02m-483.9,5.53c1.2,2.21 0.68,4.98 -1.13,6.07c-1.39,0.85 -1.54,0.61 -1.84,-3.12c-0.43,-5.18 1,-6.62 2.97,-2.96m487.22,3.36c1.22,1.26 1.23,2.53 0.09,3.97c-1.41,1.76 -1.81,1.34 -1.81,-1.92c0,-3.3 0.21,-3.56 1.72,-2.04m-24.51,10.3c-2.36,1.46 -7.87,4.64 -12.23,7.07l-7.94,4.41l-1.64,6.07c-0.91,3.34 -2.23,8.1 -2.93,10.55c-0.98,3.48 -1.27,5.83 -1.27,10.51l0,6.03l4.68,-0.18l4.7,-0.18l0.32,-6.98c0.21,-4.31 0.86,-9.29 1.7,-13.06c0.75,-3.34 1.66,-7.65 2.04,-9.56l0.68,-3.5l4.47,0c2.63,0 4.47,0.24 4.47,0.61c0,0.83 -1.47,10.81 -2.45,16.74c-0.46,2.79 -0.75,7.23 -0.66,10.32l0.16,5.43l4.7,0.18l4.68,0.18l0,-4.96c0,-4.58 1.25,-21.92 1.91,-26.52l0.29,-1.98l4.29,0c3.83,0 4.45,-0.16 5.74,-1.52c0.79,-0.83 1.77,-1.52 2.15,-1.52c1.3,0 0.13,-1.11 -1.63,-1.54c-2.91,-0.73 -5.36,-2.45 -8.44,-6.01c-1.61,-1.86 -3.06,-3.36 -3.22,-3.32c-0.16,0.04 -2.22,1.28 -4.58,2.73m-39.11,15.28c-0.86,2.25 -2.09,5.47 -2.75,7.13c-4.43,11.13 -4.54,11.54 -4.54,16.96l0,5.2l4.83,0l4.84,0l0,-5.02c0,-5.08 1.25,-9.9 6.38,-24.62c0.61,-1.76 1.13,-3.32 1.13,-3.48c0,-0.16 -1.88,-0.28 -4.18,-0.28l-4.17,0l-1.54,4.11m53.67,-2.71c-0.16,0.77 -0.34,8.22 -0.39,16.56l-0.09,15.14l4.63,0.18l4.63,0.18l0,-12.63c0,-6.94 -0.16,-14.47 -0.34,-16.72l-0.34,-4.11l-3.9,0c-3.61,0 -3.9,0.1 -4.2,1.4m17.63,1.48c1.22,12.03 1.89,20.93 1.89,25.37l0,5.22l4.68,-0.18l4.7,-0.18l0.14,-4.92c0.09,-2.69 -0.07,-6.4 -0.34,-8.2c-0.27,-1.8 -1.05,-7.04 -1.72,-11.62l-1.22,-8.36l-4.22,0l-4.22,0l0.29,2.87m17.45,-2.13c0,0.43 0.88,4.88 1.95,9.88c1.34,6.24 2.06,11.24 2.29,15.79l0.32,6.68l4.56,0l4.56,0l0.16,-5.3c0.14,-5.22 -0.43,-8.66 -2.81,-16.56c-0.41,-1.34 -1.25,-4.41 -1.88,-6.82l-1.14,-4.41l-4,0c-2.84,0 -4,0.22 -4,0.75m17.16,-0.53c0,0.12 0.86,2.79 1.89,5.91c5.42,16.22 5.61,17.01 5.61,22.27l0,5l4.56,0c3.27,0 4.58,-0.2 4.59,-0.75c0.46,-9.58 -0.04,-11.6 -7.08,-28.85l-1.56,-3.81l-4.02,0c-2.2,0 -4,0.1 -4,0.22m-591.68,11.28c0,0.3 -0.7,2.29 -1.56,4.41c-0.86,2.11 -2.32,5.87 -3.29,8.38c-0.95,2.51 -2.18,5.71 -2.74,7.11c-0.73,1.86 -1,3.97 -1,7.75l0,5.2l4.83,0l4.83,0l0,-5.12c0,-5.26 0.59,-7.51 6.2,-23.91c0.72,-2.09 1.3,-3.93 1.3,-4.09c0,-0.16 -1.93,-0.3 -4.29,-0.3c-2.36,0 -4.29,0.26 -4.29,0.57m16.16,5.36c-0.89,3.26 -2.23,8.18 -2.99,10.95c-1.07,3.91 -1.38,6.36 -1.38,10.79l0,5.75l4.83,0l4.83,0l0,-5.67c0,-4.49 0.45,-7.81 2.15,-15.95c1.18,-5.65 2.15,-10.63 2.15,-11.03c0,-0.55 -1.14,-0.77 -3.97,-0.77l-3.99,0l-1.63,5.93m19.04,-5.38c-0.2,0.4 -0.93,4.64 -2.27,13.12c-0.48,3.02 -0.98,8.68 -1.13,12.61l-0.27,7.15l4.88,0l4.88,0l0,-5.08c0,-4.66 1.18,-20.71 1.93,-26.01l0.3,-2.25l-4.08,0.06c-2.25,0.02 -4.17,0.2 -4.25,0.4m17.13,0.22c-0.13,0.4 -0.38,7.94 -0.55,16.7l-0.36,15.95l4.86,0l4.88,0l-0.02,-12.61c0,-6.94 -0.14,-14.45 -0.34,-16.7l-0.34,-4.11l-3.97,0c-2.7,0 -4.02,0.24 -4.17,0.77m17.41,-0.3c0,0.24 0.48,5.65 1.07,11.98c0.59,6.36 1.07,13.66 1.07,16.26l0,4.72l4.83,0l4.83,0l0,-5.38c0,-3.08 -0.57,-8.83 -1.32,-13.5c-0.72,-4.49 -1.48,-9.6 -1.68,-11.34l-0.36,-3.2l-4.22,0c-2.32,0 -4.22,0.2 -4.22,0.47m17.7,0.47c0,0.51 0.97,5.53 2.15,11.15c1.7,8.04 2.15,11.4 2.15,15.77l0,5.57l4.83,0l4.83,0l-0.02,-5.63c0,-5.24 -4.11,-23.6 -6.06,-27.03c-0.66,-1.19 -7.87,-1.05 -7.87,0.16m17.34,0.1c0.36,1.3 2.13,6.72 4.84,14.84c1.66,4.98 1.95,6.6 1.95,10.75c0,6.98 -0.14,6.8 5.17,6.8l4.49,0l-0.02,-5.93l-0.04,-5.93l-4.2,-10.63l-4.18,-10.63l-4.17,-0.18c-3.79,-0.16 -4.13,-0.08 -3.84,0.91m362.71,9.05c-0.59,0.51 -18.09,10.53 -38.88,22.25c-20.81,11.72 -55.69,31.42 -77.51,43.75l-39.7,22.45l-12.87,-0.38c-20.29,-0.59 -88.72,-2.69 -97.77,-3l-8.19,-0.28l0.32,4.35c0.18,2.41 0.66,7.09 1.07,10.39c0.41,3.32 0.77,6.36 0.77,6.74c0,0.77 3.4,1.05 26.28,2.13c7.22,0.34 20.99,1.01 30.57,1.52c9.6,0.49 17.79,0.89 18.22,0.89c1.63,0.02 -43.26,25.95 -68.25,39.44c-5.36,2.89 -5.43,3.02 -5.97,10.08c-0.2,2.67 -0.73,8.02 -1.18,11.84c-0.84,7.23 -2.34,22.79 -2.34,24.19c-0.02,1.23 4.68,3.32 9.06,4.03c4.63,0.75 5.43,1.8 2.09,2.75c-1.27,0.36 -2.72,0.91 -3.2,1.21c-1.09,0.69 -10.4,0.71 -11.98,0.02c-0.86,-0.36 -1.32,-1.36 -1.75,-3.75c-0.34,-1.78 -1.59,-6.46 -2.81,-10.39c-2.09,-6.88 -4.29,-19.52 -4.29,-24.9c-0.02,-2.77 0.18,-2.77 -5.11,0.36l-4.29,2.57l-0.61,6.05c-0.32,3.32 -1,9.56 -1.5,13.87c-0.5,4.29 -0.79,8.16 -0.64,8.58c0.39,1.15 5.61,3.2 9.39,3.68c3.54,0.45 4.52,1.76 1.82,2.41c-0.82,0.18 -2.93,0.73 -4.7,1.19c-2.74,0.73 -3.38,0.73 -4.34,0c-0.63,-0.47 -1.36,-0.61 -1.61,-0.34c-2.63,2.71 -6.65,0.47 -6.65,-3.7c0,-1.23 -0.7,-4.39 -1.54,-7c-0.86,-2.61 -1.97,-7.07 -2.47,-9.9c-0.52,-2.85 -1.02,-5.51 -1.13,-5.91c-0.23,-0.93 -36.86,18.89 -46.64,25.22c-0.59,0.38 -25.92,14.66 -56.28,31.7c-32.36,18.18 -55.01,31.24 -54.72,31.54c0.88,0.95 5.58,2.49 7.62,2.49c1.11,0 2.7,0.4 3.54,0.91c0.84,0.49 1.88,0.91 2.31,0.91c0.43,0 1.79,0.51 3.02,1.15c1.23,0.63 3.22,1.36 4.4,1.58c1.18,0.22 3.95,1.05 6.17,1.84c5.97,2.13 14.41,4.92 17.32,5.77c1.39,0.4 2.68,0.99 2.84,1.28c0.16,0.28 0.88,0.53 1.61,0.53c0.72,0 4.25,1.09 7.87,2.43c3.61,1.34 6.85,2.43 7.2,2.43c0.36,0 3.13,0.91 6.19,2.02c3.04,1.11 7.33,2.65 9.55,3.42c2.22,0.77 4.15,1.6 4.29,1.82c0.38,0.63 8.62,3.66 9.9,3.66c0.57,0 2.02,-0.73 3.22,-1.62c1.18,-0.89 3,-2.23 4.04,-2.96c1.04,-0.73 4.13,-2.94 6.86,-4.9c2.74,-1.98 6.49,-4.66 8.31,-5.95c1.84,-1.32 4.9,-3.52 6.81,-4.94c1.93,-1.4 5.42,-3.93 7.79,-5.61c2.36,-1.68 10.31,-7.37 17.7,-12.63c14.61,-10.41 31.77,-22.71 37.27,-26.72c1.93,-1.38 6.51,-4.66 10.19,-7.25c3.7,-2.61 8.65,-6.17 11.01,-7.94c2.36,-1.74 5.61,-4.07 7.24,-5.16l2.95,-1.96l10.19,0.38c5.6,0.2 15.27,0.65 21.45,0.97c6.2,0.34 16.7,0.87 23.35,1.21c6.63,0.32 20.02,1.01 29.76,1.52c21.4,1.09 38.77,1.96 50.81,2.51c7.56,0.36 8.99,0.57 9.19,1.4c0.13,0.53 0.25,-4.94 0.29,-12.15l0.07,-13.14l-9.39,-0.43c-5.17,-0.24 -15.25,-0.83 -22.4,-1.3c-7.15,-0.47 -20.13,-1.28 -28.83,-1.82c-51.34,-3.12 -51.43,-3.12 -49.34,-4.51c1.77,-1.17 11.07,-7.79 14.91,-10.65c2.27,-1.66 5.94,-4.25 8.15,-5.75c2.2,-1.48 6.06,-4.23 8.58,-6.11c2.5,-1.88 7.03,-5.18 10.06,-7.31c3.02,-2.15 6.45,-4.6 7.63,-5.43c1.16,-0.83 3.63,-2.59 5.49,-3.91c1.84,-1.32 4.93,-3.52 6.85,-4.92c7.7,-5.59 19.79,-14.23 23.06,-16.52c3.74,-2.59 30.75,-21.88 39.17,-27.98c16.79,-12.15 17.95,-12.65 24.6,-10.49c1.7,0.57 1.79,0.51 1.43,-0.75c-6.11,-21.9 14.66,-43.69 34.05,-35.77l3.5,1.44l7.22,-5.18c6.99,-5.02 17.98,-12.86 28.3,-20.2l4.95,-3.52l0,-4.41l0,-4.41l-4.95,-0.18l-4.97,-0.18l0,-6.82c0,-3.77 0,-6.82 0,-6.82c0,0.02 -0.48,0.45 -1.07,0.95m-292.85,22.51c-0.18,0.81 -0.2,1.74 -0.02,2.06c0.41,0.75 9.74,0.75 10.15,0.02c0.3,-0.57 -0.55,-1.44 -1.59,-1.62c-0.29,-0.06 -1.98,-0.47 -3.75,-0.89c-1.77,-0.43 -3.5,-0.85 -3.84,-0.93c-0.34,-0.06 -0.77,0.55 -0.95,1.36m352.26,40.45l0.14,31.14l16.77,0.16l16.77,0.16l0,-31.28l0,-31.3l-16.91,0l-16.89,0l0.13,31.12m-486.81,-19.82c-0.21,0.24 -0.39,14.33 -0.39,31.32l0,30.89l16.91,0l16.89,0l-0.14,-31.14l-0.13,-31.14l-16.37,-0.18c-9.01,-0.12 -16.55,0 -16.77,0.24m176.51,1.28c0.66,0.14 1.63,0.14 2.15,-0.02c0.5,-0.14 -0.04,-0.26 -1.22,-0.26c-1.18,0.02 -1.61,0.14 -0.93,0.28m-17.72,1.21c0.66,0.14 1.75,0.14 2.41,0c0.66,-0.14 0.13,-0.26 -1.2,-0.26c-1.34,0 -1.88,0.12 -1.22,0.26m-4.63,10.18c-0.04,0.32 -0.57,4.7 -1.18,9.72c-0.89,7.31 -1.41,9.78 -2.63,12.33c-1.5,3.16 -1.36,3.72 0.75,2.81c1.36,-0.59 4.08,-19.9 3.38,-24.05c-0.13,-0.77 -0.27,-1.13 -0.32,-0.81m231.04,4.37c-0.13,1.19 -0.61,1.78 -1.86,2.29c-6.74,2.59 -7.38,12.94 -0.98,15.93c2.74,1.28 2.91,1.82 2.54,7.11c-0.3,4.51 -1.52,4.66 -3.02,0.36c-1.39,-3.93 -3.68,-4.74 -4.4,-1.52c-0.75,3.36 1.82,7.47 5.52,8.87c1.38,0.53 1.81,1.07 2.07,2.75c0.54,3.22 2.38,2.43 2.38,-1.03c0,-0.81 0.48,-1.3 1.57,-1.54c7.38,-1.66 7.88,-13.75 0.7,-17.27c-1.25,-0.63 -2.31,-1.34 -2.34,-1.6c-0.34,-2.19 -0.21,-6.17 0.21,-7.13c0.59,-1.3 2.54,0.57 2.54,2.43c0,1.58 2.11,2.31 3.25,1.13c1.98,-2.02 -0.34,-6.72 -4.06,-8.24c-1.34,-0.55 -1.93,-1.21 -2.18,-2.47c-0.41,-2.17 -1.72,-2.23 -1.95,-0.08m25.4,8.52c1.43,4.8 1.41,11.98 -0.04,17.17c-1.32,4.8 -2.75,4.11 10.44,5.18c6.19,0.51 12.62,1.09 14.34,1.3l3.09,0.38l-0.14,-12.07l-0.16,-12.09l-10.99,-1.32c-6.04,-0.73 -12.48,-1.5 -14.28,-1.7l-3.29,-0.4l1.04,3.54m-25.62,-1.28c0.7,2.11 0.2,6.32 -0.77,6.32c-1.91,0 -2.77,-4.27 -1.25,-6.17c1.09,-1.36 1.59,-1.4 2.02,-0.14m4.7,14.62c1.45,1.48 1.32,5.34 -0.21,6.56c-1.86,1.48 -2.02,1.21 -2.02,-3.32c0,-4.49 0.41,-5.1 2.23,-3.24m-308.01,11.88l0,11.4l-21.31,0.16l-21.33,0.16l26.92,0.14l26.94,0.16l0.16,-3.5l0.16,-3.5l7.01,-0.16l7.01,-0.16l0.11,-7.51l0.09,-7.53l-7.11,-0.34c-3.9,-0.2 -9.71,-0.45 -12.87,-0.55l-5.77,-0.16l0,11.4m30.64,-7.15c-0.73,2.31 -1.56,3.97 -1.98,3.97c-0.93,0 -0.98,1.34 -0.11,2.31c1.86,2.11 3.54,0.91 5.51,-3.91c2.23,-5.49 2.25,-5.57 0.68,-5.53c-0.66,0.02 -1.57,-0.14 -2.04,-0.38c-0.64,-0.32 -1.09,0.45 -2.06,3.54m-2.38,9.25c-0.8,0.89 -0.34,2.61 0.72,2.61c0.79,0 1.07,-0.38 1.07,-1.52c0,-1.42 -0.98,-2.02 -1.79,-1.09m219.15,17.33c-0.36,0.4 -0.64,0.95 -0.64,1.26c0,0.28 -1.7,4.88 -3.75,10.2l-3.75,9.68l0,5.79l0,5.81l4.56,-0.12l4.56,-0.1l0,-5.08c0,-4.84 0.7,-7.96 3.25,-14.49c0.55,-1.44 4.25,-13.1 4.25,-13.44c0,-0.61 -7.9,-0.14 -8.47,0.51m16.66,3.36c-5.11,18.46 -5.02,18 -4.86,23.62l0.16,5.38l4.7,0.18l4.68,0.16l0,-5.71c0,-4.6 0.43,-7.73 2.15,-15.81c2.77,-13.04 2.95,-11.92 -1.77,-11.92l-3.91,0l-1.14,4.09m18.41,-3.04c-1.18,4.25 -3.56,23.28 -3.41,27.35l0.14,4.7l4.61,0.18l4.61,0.16l0.36,-7.75c0.2,-4.27 0.68,-11.6 1.11,-16.28c0.41,-4.68 0.63,-8.73 0.5,-8.97c-0.57,-1.03 -7.62,-0.51 -7.92,0.61m17.2,3.58c-0.2,2.57 -0.34,10.08 -0.34,16.74l0,12.07l4.68,-0.16l4.7,-0.18l-0.16,-14.58c-0.07,-8.02 -0.27,-15.47 -0.41,-16.56l-0.29,-1.96l-3.91,0l-3.93,0l-0.34,4.64m17.91,-1.46c0,1.76 0.36,6.48 0.79,10.49c0.43,4.01 0.79,10.08 0.79,13.52l0.02,6.21l4.83,0l4.83,0l0,-6.13c0,-3.56 -0.43,-8.56 -1.02,-11.98c-0.57,-3.24 -1.18,-7.25 -1.36,-8.91c-0.77,-6.84 -0.41,-6.38 -4.9,-6.38l-3.99,0l0.02,3.18m17.14,-2.37c0,0.45 0.21,1.62 0.5,2.59c1.86,6.64 3.49,16.5 3.75,22.71l0.3,6.98l4.56,0l4.56,0l0,-6.38c0,-6.36 -1.22,-12.39 -4.9,-24.15l-0.82,-2.57l-3.97,0c-2.99,0 -3.99,0.2 -3.99,0.81m17.45,0.24c0.2,0.59 1.45,4.35 2.75,8.36c1.3,4.01 2.86,8.56 3.43,10.12c0.77,2.13 1.04,4.27 1.04,8.38l0,5.53l4.7,-0.16l4.7,-0.18l-0.04,-5.77l-0.02,-5.77l-4.27,-10.77l-4.27,-10.77l-4.2,-0.02c-3.81,0 -4.18,0.1 -3.83,1.05m-64.84,52.19c-0.2,0.22 -0.36,14.31 -0.36,31.3l0,30.89l16.77,-0.16l16.77,-0.16l0.14,-31.14l0.14,-31.14l-16.55,0c-9.1,0 -16.7,0.18 -16.91,0.4"
            fill="#9bface"
            fill-rule="evenodd"
            id="svg_3"
          />
        </g>
      </g>
    </svg>