<svg
  viewBox="0 0 500 500"
  xmlns="http://www.w3.org/2000/svg"
  xmlns:svg="http://www.w3.org/2000/svg"
  fill="#9bface"
  stroke="#9bface"
  style="background: #aea1ea;"
>
  <g class="layer">
    <path
      d="m250,400.5c-49.67,-67.17 -149,-125.83 -149,-201.5c0,-75.67 87,-98.33 150,-98c63,0.33 149,19.83 149,98c0,78.17 -100,134.33 -150,201.5z"
      fill="none"
      stroke-width="10"
    />
    <path
      d="m250,400.5c-49.67,-67.17 -149,-125.83 -149,-201.5c0,-75.67 87,-98.33 150,-98c63,0.33 149,19.83 149,98c0,78.17 -100,134.33 -150,201.5z"
      fill="none"
      stroke="#666666"
    />
  </g>

  <g
    stroke-linecap="round"
    stroke-linejoin="round"
    stroke-width="1"
    stroke="#666666"
  >
    <path
      d="m313.41,229.54c-0.37,0 -0.74,0 -0.74,0c-5.94,-0.78 -10.77,-2.34 -15.23,-5.84c-0.37,-0.39 -0.37,-0.39 -0.74,-0.39c-2.23,-1.95 -4.09,-0.78 -5.2,-0.39l-0.37,0.39c-5.57,4.28 -11.88,6.62 -19.31,6.62c-7.8,0 -14.11,-2.34 -20.06,-7.01c-2.23,-1.56 -3.71,0 -3.71,0c-5.94,5.06 -12.63,7.4 -20.43,7.4c-7.43,0 -14.11,-2.34 -19.68,-7.01c-0.37,-0.39 -0.74,-0.39 -0.74,-0.78c-1.86,-1.56 -3.71,0 -3.71,0c-5.57,4.67 -11.88,7.01 -18.94,7.4c0,0 -2.23,0 -2.23,2.72l0,46.71c0,3.89 0,8.17 0,11.29c0,1.17 0.74,3.89 4.09,4.67l68.71,0c3.71,-0.78 4.09,-3.5 4.09,-4.67c0,-3.11 0,-7.01 0,-11.29c0,-10.12 0,-19.85 0,-29.97c0.37,-1.17 0.74,-2.34 3.71,-2.34c10.4,0 20.8,0 31.2,0c0.74,0 1.11,0 1.86,0c1.11,0.39 2.23,1.17 2.23,3.89c0,9.73 0,19.07 0,28.42c0,3.89 0,7.4 0,10.51c0,4.28 2.97,5.06 3.71,5.06l10.4,0c0.74,0 3.71,-0.78 3.71,-5.06c0,-3.11 0,-6.62 0,-10.51l0,-45.54c0.37,-3.11 -1.11,-3.89 -2.6,-4.28l-0.02,0zm-73.91,44.77c0,0.39 0,0.78 0,1.17c0,1.56 -0.74,3.89 -4.46,3.89c-10.03,0 -20.06,0 -30.08,0c-3.34,0 -4.09,-1.56 -4.46,-3.11c0,-0.39 0,-0.78 0,-1.56c0,-7.01 0,-14.79 0,-22.19c0,-5.45 2.97,-5.84 4.09,-5.84c10.4,0 21.17,0 31.57,0c1.11,0 3.71,0.78 3.71,5.06c-0.37,7.79 -0.37,15.18 -0.37,22.58z"
      id="svg_5"
    />
    <path
      d="m310.44,213.97c8.17,2.34 15.23,0.78 21.17,-5.45c3.71,-3.89 6.31,-8.56 7.06,-13.62c0,-0.39 0,-0.78 0,-0.78c-0.74,-1.95 -1.49,-3.89 -2.23,-5.45c-8.91,-16.74 -17.46,-33.48 -26,-50.21c-1.11,-2.34 -3.71,-2.34 -4.46,-2.34l-113.28,0c0,0 -3.34,0 -4.46,2.34c-8.91,16.74 -17.46,33.87 -26,50.21c-0.74,1.56 -1.49,3.89 -1.49,6.23c0,0.39 0,0.39 0,0.78c0.74,5.45 2.97,10.12 6.69,13.62c6.69,6.23 14.11,7.79 23.03,4.67c4.83,-1.95 8.17,-5.06 11.14,-9.73c0.37,-0.39 0.74,-0.78 1.11,-1.17c1.86,-1.17 4.09,-0.78 5.57,1.17c1.49,2.34 3.34,4.67 5.57,6.23c6.31,5.06 13.37,5.84 20.8,3.5c4.83,-1.56 8.54,-5.06 11.14,-9.73c1.49,-2.34 5.2,-2.72 6.69,0c0.74,0.78 1.11,1.95 1.86,2.72c3.71,4.67 8.54,7.4 14.11,8.17c5.2,0.78 10.4,-0.78 15.23,-3.89c2.6,-1.95 4.83,-4.28 6.31,-7.01c1.86,-2.34 5.2,-2.34 6.69,0c2.97,5.06 6.69,8.17 12.26,9.73l1.49,0l0,0.01z"
      id="svg_6"
    />
  </g>
</svg>