<svg xmlns="http://www.w3.org/2000/svg" viewBox="0 0 512 400">
    <rect fill="#EDEDED" height="243.2" width="455.05" x="27.98" y="135"/>
    <rect fill="#D8D8DA" height="243.2" width="47.9" x="435.13" y="135"/>
    <rect fill="#D1E5F5" height="89.6" width="203.57" x="231.55" y="237.4"/>
    <polygon fill="#B4D8F1" points="267.4750063419342,237.39999389648438 351.29997355143314,327 435.12500166893005,327 435.12500166893005,237.39999389648438 "/>
    <polygon fill="#80CB93" points="495,96.60000610351562 483.025000333786,109.39999389648438 27.975016824404292,109.39999389648438 16.000016206502835,96.60000610351562 87.85001134872437,19.800003051757812 423.15000200271606,19.800003051757812 "/>
    <polygon fill="#6DC180" points="423.15000200271606,19.800003051757812 399.2000331242871,19.800003051757812 471.050000667572,96.60000610351562 459.075031455357,109.39999389648438 483.025000333786,109.39999389648438 495,96.60000610351562 "/>
    <path d="m16,135c0,35.35 26.8,64 59.87,64s59.87,-28.65 59.87,-64c0,35.35 26.8,64 59.87,64s59.87,-28.65 59.87,-64c0,35.35 26.8,64 59.87,64s59.87,-28.65 59.87,-64c0,35.35 26.8,64 59.87,64s59.87,-28.65 59.87,-64l0,-38.4l-479,0l0,38.4z" fill="#95D5A7"/>
    <path d="m471.05,96.6l0,38.4c0,30.96 -20.57,56.79 -47.9,62.72c3.87,0.84 7.88,1.28 11.97,1.28c33.07,0 59.87,-28.65 59.87,-64l0,-38.4l-23.95,0z" fill="#80CB93"/>
    <path d="m303.4,197.72c3.87,0.84 7.88,1.28 11.97,1.28c33.07,0 59.87,-28.65 59.87,-64l-12.98,0c-5.88,0 -10.83,4.57 -11.82,10.77c-4.14,26.04 -22.97,46.72 -47.06,51.95z" fill="#80CB93"/>
    <path d="m183.65,197.72c3.87,0.84 7.88,1.28 11.97,1.28c33.07,0 59.87,-28.65 59.87,-64l-12.98,0c-5.88,0 -10.83,4.57 -11.82,10.77c-4.14,26.04 -22.97,46.72 -47.06,51.95z" fill="#80CB93"/>
    <path d="m63.9,197.72c3.87,0.84 7.88,1.28 11.97,1.28c33.07,0 59.87,-28.65 59.87,-64l-12.98,0c-5.88,0 -10.83,4.57 -11.82,10.77c-4.14,26.04 -22.97,46.72 -47.06,51.95z" fill="#80CB93"/>
    <rect fill="#E07188" height="140.8" width="107.77" x="75.88" y="237.4"/>
    <rect fill="#DC4161" height="140.8" width="35.92" x="147.73" y="237.4"/>
    <path d="m111.8,323.8c-4.96,0 -8.98,-4.3 -8.98,-9.6l0,-12.8c0,-5.3 4.02,-9.6 8.98,-9.6c4.96,0 8.98,4.3 8.98,9.6l0,12.8c0,5.3 -4.02,9.6 -8.98,9.6z" fill="#DC4161"/>
</svg>