<svg xmlns="http://www.w3.org/2000/svg" viewBox="0 0 500 500" version="1.1" id="svg_null">
  <defs>
    <linearGradient x1="50%" y1="0%" x2="50%" y2="100%" id="linearGradient-1">
      <stop stop-color="#69A86A" offset="0%"></stop>
      <stop stop-color="#59D75B" offset="100%"></stop>
    </linearGradient>
  </defs>
  <g id="root" stroke="none" stroke-width="1" fill="none" fill-rule="evenodd">
    <rect id="background.primary" fill="#c4bbf0" x="0" y="0" width="500" height="500"></rect>
    <circle id="shape.secondary" fill="#927fbf" opacity=".8" cx="115" cy="165" r="85"></circle>
    <circle id="shape.accent" fill="#4f3b78" opacity=".8" cx="305" cy="344" r="85"></circle>
    <g id="Group" transform="translate(60.000000, 263.000000)">
      <rect id="Rectangle-17" x="0" y="0" width="150" height="80"></rect>
      <text
        id="headerWord_2"
        font-family="Teko"
        font-size="80"
        font-weight="500"
        line-spacing="80"
        fill="#FFF"
        data-text-alignment="L"
        font-style="normal"
      >
        <tspan x="0" y="67">Local</tspan>
      </text>
    </g>
    <g id="Group-2" transform="translate(60.000000, 165.000000)">
      <rect id="Rectangle" x="0" y="0" width="270" height="80"></rect>
      <text
        id="headerWord_1"
        font-family="Teko"
        font-size="80"
        font-weight="500"
        line-spacing="80"
        fill="#FFF"
        data-text-alignment="L"
        font-style="normal"
      >
        <tspan x="0" y="67">Arab</tspan>
      </text>
    </g>
    <g
      id="watermelon"
      transform="translate(376.643182, 297.643182) rotate(45.000000) translate(-376.643182, -297.643182) translate(313.143182, 172.143182)"
    >
      <path
        d="M0.993 0c69.25 0 125.389 56.139 125.389 125.388c0 69.25 -56.139 125.389 -125.389 125.389"
        id="Fill-1"
        fill="url(#linearGradient-1)"
      ></path>
      <path
        d="M1 13c62.203 0 112.628 50.425 112.628 112.628c0 62.202 -50.425 112.627 -112.628 112.627"
        id="Fill-3"
        fill="#E9FEEF"
      ></path>
      <path
        d="M1 27c56.074 0 101.531 45.457 101.531 101.531c0 56.075 -45.457 101.532 -101.531 101.532"
        id="Fill-5"
        fill="#FC136C"
      ></path>
    </g>
  </g>
</svg>
