<svg
    xmlns="http://www.w3.org/2000/svg"
    viewBox="0 0 1024 1024"
    class="icon-svg"
    style="font-size: 23px"
    data-spm-anchor-id="a2g0n.detail.0.i3.301932c0Tkgafk">
    <path
    d="M765.525333 128c31.232 0 59.285333 19.242667 69.717334 48.384l54.336 152.042667c3.989333 4.309333 6.421333 9.941333 6.421333 16.106666v133.653334c0 47.722667-25.301333 89.898667-63.978667 115.285333L832 844.266667C832 872.533333 809.557333 896 781.141333 896H384v-64h384V617.237333A159.914667 159.914667 0 0 1 746.666667 618.666667l-5.248-0.085334c-45.44-1.493333-85.76-22.08-112.106667-53.504-26.304 31.424-66.624 52.032-112.064 53.504L512 618.666667c-47.594667 0-89.984-20.949333-117.333333-53.568C367.317333 597.717333 324.906667 618.666667 277.333333 618.666667c-7.253333 0-14.357333-0.490667-21.333333-1.429334V896H192V593.493333c-38.698667-25.386667-64-67.584-64-115.306666V344.533333c0-6.4 2.624-12.245333 6.890667-16.597333L194.133333 174.677333C205.056 146.453333 232.64 128 263.210667 128zM362.666667 384H192v94.186667C192 519.509333 229.354667 554.666667 277.333333 554.666667c47.957333 0 85.333333-35.157333 85.333334-76.48V384z m234.666666 0h-170.666666v94.186667C426.666667 519.509333 464.021333 554.666667 510.954667 554.666667l4.202666-0.042667C561.706667 553.109333 597.333333 518.485333 597.333333 478.186667V384z m234.666667 0h-170.666667v94.186667c0 40.32 35.626667 74.922667 82.176 76.437333l4.202667 0.042667c46.933333 0 84.288-35.157333 84.288-76.48V384z m-66.474667-192H263.210667c-4.416 0-8.106667 2.474667-9.386667 5.738667L206.613333 320h611.989334l-43.605334-122.069333a9.493333 9.493333 0 0 0-7.573333-5.76L765.525333 192z"></path>
</svg>